<svg width="20" height="20" viewBox="0 0 20 20" fill="none" xmlns="http://www.w3.org/2000/svg">
<path d="M17.932 17.0001L16.0805 13.7876L11.4543 16.4415L13.3131 19.6667C13.5609 20.0959 14.1738 20.1142 14.4468 19.7007L14.6739 19.3569L15.2476 17.7733L16.9833 18.0235L17.3946 17.9988C17.8892 17.9692 18.1797 17.4292 17.932 17.0001Z" fill="#FF6B4D"/>
<path d="M17.9318 17.0001L16.0804 13.7876L15.3875 14.1851L17.0631 17.0569C17.2439 17.37 17.1382 17.7417 16.8758 17.9316C16.7978 17.988 16.905 17.964 16.905 17.964L16.9853 18.0234L17.3944 17.9988C17.8891 17.9692 18.1796 17.4292 17.9318 17.0001Z" fill="#F23C3C"/>
<path d="M3.81465 13.9062L2.02836 17C1.78059 17.4292 2.07106 17.9691 2.56578 17.9988L2.97707 18.0235L4.63703 17.9815L5.28645 19.3568L5.51348 19.7007C5.78656 20.1142 6.39938 20.0959 6.64719 19.6667L8.44641 16.5505L3.81465 13.9062Z" fill="#FF6B4D"/>
<path d="M16.9831 18.0234L15.0226 14.6278L12.7095 15.9548L14.6737 19.3567L15.1277 18.6691C15.2417 18.4963 15.3944 18.3525 15.5737 18.249C15.753 18.1455 15.9539 18.0852 16.1605 18.0728L16.9831 18.0234ZM4.94533 14.6143L2.97705 18.0234L3.79959 18.0728C4.00621 18.0852 4.20711 18.1456 4.38638 18.2491C4.56564 18.3525 4.71835 18.4964 4.8324 18.6691L5.28643 19.3568L7.26119 15.9364L4.94533 14.6143Z" fill="#F3F5F9"/>
<path d="M13.5319 16.2304L14.7875 15.0907L15.6684 13.9644L17.0942 13.503C17.2577 13.3594 17.3965 13.19 17.5052 13.0016C17.7866 12.5142 17.8394 11.9578 17.697 11.4561C17.5591 10.9703 17.6973 10.4547 18.0597 10.1031C18.4342 9.73981 18.6669 9.23125 18.6669 8.6682C18.6669 8.10547 18.4344 7.59715 18.0603 7.23387C17.698 6.88211 17.5598 6.36652 17.6979 5.88082C17.8406 5.37891 17.7879 4.82211 17.5064 4.33449C17.225 3.84715 16.7695 3.5232 16.2638 3.39566C15.7742 3.27219 15.3967 2.89477 15.2735 2.40508C15.1461 1.89906 14.8221 1.44324 14.3344 1.16172C13.8471 0.880352 13.2907 0.827539 12.7889 0.969961C12.3032 1.10781 11.7876 0.969727 11.436 0.607266C11.0726 0.232773 10.5641 0 10.001 0C9.43827 0 8.92999 0.2325 8.56671 0.606641C8.21495 0.968906 7.69936 1.10711 7.21366 0.969024C6.71175 0.826328 6.15499 0.879024 5.66733 1.16059C5.17999 1.44195 4.85604 1.89746 4.72851 2.40313C4.60503 2.89273 4.22761 3.2702 3.73792 3.39348C3.2319 3.52086 2.77608 3.84488 2.49452 4.3325C2.21315 4.81984 2.16034 5.37629 2.30272 5.87797C2.44058 6.36375 2.30249 6.87934 1.94003 7.23094C1.5655 7.59426 1.33276 8.10281 1.33276 8.66586C1.33276 9.22859 1.56526 9.73691 1.9394 10.1002C2.30167 10.452 2.43987 10.9675 2.30179 11.4532C2.15909 11.9552 2.21179 12.512 2.49331 12.9996C2.77468 13.4869 3.23019 13.8109 3.73585 13.9384C4.22546 14.0619 4.60292 14.4393 4.7262 14.929C4.85358 15.435 5.17761 15.8908 5.66526 16.1724C6.15261 16.4538 6.70905 16.5065 7.21073 16.3641C7.69651 16.2263 8.2121 16.3644 8.5637 16.7268C8.92702 17.1014 9.43558 17.3341 9.99862 17.3341C10.5614 17.3341 11.0697 17.1016 11.433 16.7275C11.7847 16.3652 12.3003 16.227 12.786 16.3651C12.814 16.373 12.8422 16.3802 12.8705 16.3869L13.5319 16.2304Z" fill="#FFD659"/>
<path d="M10.3011 14.6277L12.0334 14.1868L14.5918 12.1001L15.1434 9.72107V6.14588L12.9704 3.5874L10.2657 2.68408H9.53824C6.44078 2.92033 4.00098 5.5085 4.00098 8.6665C4.00098 11.8245 6.44074 14.4126 9.5382 14.6489L10.3011 14.6277Z" fill="#FFB347"/>
<path d="M10.5989 5.39946L11.2233 6.66466C11.2472 6.71312 11.2826 6.75504 11.3263 6.78681C11.37 6.81857 11.4208 6.83923 11.4743 6.847L12.8705 7.04989C13.4173 7.12935 13.6357 7.80134 13.24 8.18704L12.2297 9.17189C12.191 9.20961 12.162 9.25618 12.1453 9.30757C12.1286 9.35897 12.1247 9.41366 12.1338 9.46692L12.3723 10.8575C12.4657 11.4022 11.8941 11.8175 11.405 11.5603L10.1562 10.9038C10.1083 10.8786 10.0551 10.8655 10.0011 10.8655C9.94701 10.8655 9.89377 10.8786 9.84594 10.9038L8.59711 11.5603C8.10804 11.8174 7.5364 11.4022 7.6298 10.8575L7.86832 9.46692C7.87746 9.41366 7.8735 9.35897 7.8568 9.30757C7.8401 9.25618 7.81116 9.20961 7.77246 9.17189L6.76211 8.18704C6.36644 7.80134 6.58476 7.12939 7.1316 7.04989L8.52785 6.847C8.58133 6.83923 8.63212 6.81857 8.67584 6.7868C8.71956 6.75504 8.75491 6.71312 8.77883 6.66466L9.40324 5.39946C9.64777 4.90396 10.3543 4.90396 10.5989 5.39946Z" fill="#FFD659"/>
<path d="M18.667 8.66799C18.667 8.10525 18.4345 7.59693 18.0603 7.23365C17.6981 6.88189 17.5599 6.36631 17.6979 5.88061C17.8406 5.37869 17.7879 4.82189 17.5064 4.33428C17.225 3.84693 16.7695 3.52299 16.2638 3.39545C15.7742 3.27197 15.3968 2.89455 15.2735 2.40486C15.1461 1.89885 14.8221 1.44303 14.3345 1.1615C13.874 0.895683 13.352 0.834121 12.8726 0.948144C13.0608 0.992921 13.2414 1.06479 13.4089 1.1615C13.8965 1.44303 14.2206 1.89889 14.3479 2.40486C14.4712 2.89455 14.8487 3.27197 15.3383 3.39545C15.844 3.52299 16.2995 3.84693 16.5808 4.33428C16.8624 4.82189 16.9151 5.37869 16.7724 5.88061C16.6343 6.36631 16.7725 6.88189 17.1348 7.23365C17.5089 7.59693 17.7414 8.10521 17.7414 8.66799C17.7414 9.23107 17.5087 9.73959 17.1342 10.1029C16.7717 10.4545 16.6336 10.9701 16.7715 11.4559C16.9138 11.9576 16.8611 12.514 16.5797 13.0013C16.2982 13.489 15.8423 13.813 15.3363 13.9404C14.8466 14.0637 14.4692 14.4412 14.3457 14.9308C14.2182 15.4364 13.8942 15.8919 13.4069 16.1733C13.2394 16.27 13.0588 16.3419 12.8706 16.3867C13.3499 16.5007 13.872 16.4392 14.3324 16.1733C14.8198 15.8919 15.1437 15.4364 15.2713 14.9308C15.3947 14.4412 15.7722 14.0637 16.2619 13.9404C16.7679 13.813 17.2237 13.489 17.5053 13.0013C17.7866 12.514 17.8394 11.9576 17.697 11.4559C17.5592 10.9701 17.6973 10.4545 18.0597 10.1029C18.4342 9.73959 18.667 9.23104 18.667 8.66799Z" fill="#FFC552"/>
<path d="M10.0011 2.6665C9.84536 2.6665 9.69106 2.67244 9.53833 2.68412C12.6358 2.92041 15.0756 5.50853 15.0756 8.66654C15.0756 11.8245 12.6358 14.4127 9.53833 14.649C9.69106 14.6606 9.8454 14.6666 10.0011 14.6666C13.3148 14.6666 16.0011 11.9803 16.0011 8.66658C16.0011 5.35279 13.3148 2.6665 10.0011 2.6665Z" fill="#FF9E3D"/>
<path d="M16.8713 18.0304L16.9831 18.0237L16.9131 17.9023C16.8245 17.9769 16.7178 18.0266 16.6038 18.0465L16.8713 18.0304Z" fill="#E1E6F0"/>
</svg>
