<svg width="31" height="19" viewBox="0 0 31 19" fill="none" xmlns="http://www.w3.org/2000/svg">
<path d="M30.7059 0.500001V14.2647L0 14.2647L6.01675e-07 0.5L30.7059 0.500001Z" fill="#FC6240"/>
<path d="M3.70589 10.559H2.11765L2.11765 4.20601H3.70589V2.61778L27 2.61778V4.20601L28.5882 4.20601V10.559H27V12.1472L3.70589 12.1472V10.559Z" fill="#39C425"/>
<path d="M12.7059 7.38261C12.7059 8.84454 13.891 10.0297 15.3529 10.0297C16.8148 10.0297 18 8.84454 18 7.38261C18 5.92068 16.8148 4.73555 15.3529 4.73555C13.891 4.73555 12.7059 5.92068 12.7059 7.38261Z" fill="#FC6240"/>
<path d="M12.7059 18.5H3.76774e-05L3.78394e-05 14.7941C3.79008e-05 13.39 0.557809 12.0434 1.55065 11.0506C2.54349 10.0578 3.89007 9.5 5.29416 9.5V9.51059L10.3768 6.07603C10.8422 5.7616 11.4134 5.64492 11.9648 5.75165C12.5162 5.85838 13.0026 6.17978 13.3171 6.64514C13.6315 7.11051 13.7482 7.68173 13.6414 8.23312C13.5347 8.78452 13.2133 9.27094 12.7479 9.58537L8.47063 12.6765V14.2647L21.1765 14.2647L13.7025 18.2508C13.3958 18.4144 13.0535 18.5 12.7059 18.5Z" fill="#F5CBAA"/>
</svg>
