<svg width="101" height="100" viewBox="0 0 101 100" fill="none" xmlns="http://www.w3.org/2000/svg">
<g clip-path="url(#clip0_3_2176)">
<path d="M51.3948 65.2786C60.3589 65.2786 67.6258 58.0118 67.6258 49.0476C67.6258 40.0835 60.3589 32.8167 51.3948 32.8167C42.4307 32.8167 35.1638 40.0835 35.1638 49.0476C35.1638 58.0118 42.4307 65.2786 51.3948 65.2786Z" fill="#FFB6B6"/>
<path d="M42.0771 67.6789L41.3438 60.2666L55.9869 57.5286L64.6335 78.5812L49.5959 95.8744L38.8816 74.8218L42.0771 67.6789Z" fill="#FFB6B6"/>
<path d="M41.1086 63.9771L44.31 64.7004C44.31 64.7004 41.7934 56.7202 42.6476 55.9583C43.5017 55.1965 45.5949 56.3969 45.5949 56.3969L47.7946 58.8631L50.4739 56.1352C50.4739 56.1352 53.3827 52.5182 54.5216 51.5024C55.6605 50.4866 53.8312 46.716 53.8312 46.716C53.8312 46.716 70.7281 42.1598 64.4407 33.9642C64.4407 33.9642 60.7545 27.5385 59.554 29.6317C58.3536 31.7249 56.9221 28.4005 56.9221 28.4005L52.5511 29.2317C52.5511 29.2317 43.9244 24.1451 35.7366 35.0267C27.5488 45.9083 41.1086 63.9771 41.1086 63.9771Z" fill="#2F2E41"/>
<path d="M81.921 88.9005C73.0507 96.0922 62.077 100 50.5 100C39.9285 100 29.859 96.7407 21.436 90.6994C21.4511 90.5415 21.4661 90.3855 21.4793 90.2295C21.703 87.7858 21.9022 85.4099 22.0338 83.44C22.5432 75.7915 40.3872 70.6937 40.3872 70.6937C40.3872 70.6937 40.468 70.7746 40.6297 70.9155C41.6146 71.7802 45.6127 74.9155 52.624 75.7915C58.8759 76.5734 60.9342 72.8648 61.5564 71.0885C61.7443 70.5471 61.8007 70.1843 61.8007 70.1843L80.1541 78.8516C81.3515 80.5622 81.8195 84.2464 81.9116 88.3874C81.9154 88.5584 81.9192 88.7276 81.921 88.9005Z" fill="#EEEEEE"/>
</g>
<defs>
<clipPath id="clip0_3_2176">
<rect width="100" height="100" fill="white" transform="translate(0.5)"/>
</clipPath>
</defs>
</svg>
