<svg width="20" height="21" viewBox="0 0 20 21" fill="none" xmlns="http://www.w3.org/2000/svg">
<path d="M8.95832 3.83332V7.16665C8.95854 7.46766 8.89941 7.76576 8.78432 8.04389C8.66923 8.32203 8.50044 8.57475 8.28759 8.78759C8.07475 9.00044 7.82203 9.16923 7.54389 9.28432C7.26576 9.39941 6.96766 9.45854 6.66665 9.45832H3.33332C2.85562 9.45822 2.38992 9.30874 2.0014 9.0308C1.61289 8.75286 1.32102 8.36038 1.16665 7.90832C1.08272 7.6701 1.04044 7.41922 1.04165 7.16665V3.83332C1.04143 3.53231 1.10056 3.23421 1.21565 2.95608C1.33074 2.67794 1.49953 2.42522 1.71238 2.21238C1.92522 1.99953 2.17794 1.83074 2.45608 1.71565C2.73421 1.60056 3.03231 1.54143 3.33332 1.54165H6.66665C6.91922 1.54044 7.1701 1.58272 7.40832 1.66665C7.86038 1.82102 8.25286 2.11289 8.5308 2.5014C8.80874 2.88992 8.95822 3.35562 8.95832 3.83332Z" fill="#FC6240"/>
<path d="M18.9583 5.49996C18.9587 6.33943 18.692 7.15726 18.1969 7.8352C17.7018 8.51313 17.004 9.01603 16.2042 9.27117C15.4044 9.52632 14.5443 9.52048 13.748 9.25451C12.9518 8.98854 12.2608 8.47622 11.775 7.79163C11.2961 7.1236 11.0396 6.32187 11.0416 5.49996C11.0425 4.45042 11.4598 3.44411 12.202 2.70197C12.9441 1.95983 13.9504 1.54251 15 1.54163C16.0494 1.54295 17.0554 1.96041 17.7975 2.70246C18.5395 3.4445 18.957 4.45055 18.9583 5.49996Z" fill="#FFCB03"/>
<path d="M7.40832 1.66665C7.16154 3.23335 6.42445 4.68148 5.30297 5.80297C4.18148 6.92445 2.73335 7.66154 1.16665 7.90832C1.08272 7.6701 1.04044 7.41922 1.04165 7.16665V3.83332C1.04143 3.53231 1.10056 3.23421 1.21565 2.95608C1.33074 2.67794 1.49953 2.42522 1.71238 2.21238C1.92522 1.99953 2.17794 1.83074 2.45608 1.71565C2.73421 1.60056 3.03231 1.54143 3.33332 1.54165H6.66665C6.91922 1.54044 7.1701 1.58272 7.40832 1.66665Z" fill="#F12B57"/>
<path d="M17.2916 2.27497C16.9624 3.61007 16.2744 4.82975 15.3021 5.80208C14.3297 6.77442 13.1101 7.46241 11.775 7.79164C11.2961 7.12362 11.0396 6.32188 11.0416 5.49997C11.0425 4.45043 11.4598 3.44412 12.202 2.70198C12.9441 1.95984 13.9504 1.54252 15 1.54164C15.8219 1.53957 16.6236 1.79613 17.2916 2.27497Z" fill="#FFD869"/>
<path d="M18.9583 13.8333V17.1666C18.9585 17.4677 18.8994 17.7657 18.7843 18.0439C18.6692 18.322 18.5004 18.5747 18.2876 18.7876C18.0747 19.0004 17.822 19.1692 17.5439 19.2843C17.2657 19.3994 16.9676 19.4585 16.6666 19.4583H13.3333C13.0323 19.4585 12.7342 19.3994 12.4561 19.2843C12.1779 19.1692 11.9252 19.0004 11.7124 18.7876C11.4995 18.5747 11.3307 18.322 11.2156 18.0439C11.1005 17.7657 11.0414 17.4677 11.0416 17.1666V13.8333C11.0414 13.5323 11.1005 13.2342 11.2156 12.9561C11.3307 12.6779 11.4995 12.4252 11.7124 12.2124C11.9252 11.9995 12.1779 11.8307 12.4561 11.7156C12.7342 11.6005 13.0323 11.5414 13.3333 11.5416H16.6666C16.8608 11.5409 17.0542 11.5661 17.2416 11.6166C17.7337 11.7423 18.1698 12.0285 18.4808 12.4301C18.7917 12.8316 18.9598 13.3254 18.9583 13.8333ZM8.95829 13.8333V17.1666C8.95851 17.4677 8.89939 17.7657 8.7843 18.0439C8.66921 18.322 8.50041 18.5747 8.28757 18.7876C8.07472 19.0004 7.82201 19.1692 7.54387 19.2843C7.26573 19.3994 6.96763 19.4585 6.66663 19.4583H3.33329C3.03229 19.4585 2.73419 19.3994 2.45605 19.2843C2.17791 19.1692 1.9252 19.0004 1.71235 18.7876C1.49951 18.5747 1.33071 18.322 1.21562 18.0439C1.10053 17.7657 1.04141 17.4677 1.04163 17.1666V13.8333C1.04141 13.5323 1.10053 13.2342 1.21562 12.9561C1.33071 12.6779 1.49951 12.4252 1.71235 12.2124C1.9252 11.9995 2.17791 11.8307 2.45605 11.7156C2.73419 11.6005 3.03229 11.5414 3.33329 11.5416H6.66663C6.86078 11.5409 7.05416 11.5661 7.24163 11.6166C7.73372 11.7423 8.1698 12.0285 8.48077 12.4301C8.79173 12.8316 8.95979 13.3254 8.95829 13.8333Z" fill="#FC6240"/>
<path d="M7.24163 11.6166C6.8588 13.0366 6.06696 14.3126 4.9646 15.2861C3.86225 16.2596 2.49802 16.8874 1.04163 17.0916V13.8333C1.04141 13.5323 1.10053 13.2342 1.21562 12.9561C1.33071 12.6779 1.49951 12.4252 1.71235 12.2124C1.9252 11.9995 2.17791 11.8307 2.45605 11.7156C2.73419 11.6005 3.03229 11.5414 3.33329 11.5416H6.66663C6.86078 11.5409 7.05416 11.5661 7.24163 11.6166ZM17.2416 11.6166C16.8588 13.0366 16.067 14.3126 14.9646 15.2861C13.8622 16.2596 12.498 16.8874 11.0416 17.0916V13.8333C11.0414 13.5323 11.1005 13.2342 11.2156 12.9561C11.3307 12.6779 11.4995 12.4252 11.7124 12.2124C11.9252 11.9995 12.1779 11.8307 12.4561 11.7156C12.7342 11.6005 13.0323 11.5414 13.3333 11.5416H16.6666C16.8608 11.5409 17.0542 11.5661 17.2416 11.6166Z" fill="#F12B57"/>
</svg>
