<svg width="20" height="20" viewBox="0 0 20 20" fill="none" xmlns="http://www.w3.org/2000/svg">
<path d="M15.105 11.8907C13.7149 11.8907 12.584 13.0216 12.584 14.4117C12.584 15.8018 13.7149 16.9327 15.105 16.9327C16.4954 16.9327 17.626 15.8018 17.626 14.4117C17.626 13.0216 16.4952 11.8907 15.105 11.8907ZM15.105 15.6722C14.4099 15.6722 13.8445 15.1069 13.8445 14.4117C13.8445 13.7166 14.4099 13.1512 15.105 13.1512C15.8002 13.1512 16.3655 13.7166 16.3655 14.4117C16.3655 15.1069 15.8002 15.6722 15.105 15.6722ZM6.4916 11.8907C5.10148 11.8907 3.97058 13.0216 3.97058 14.4117C3.97058 15.8018 5.10148 16.9327 6.4916 16.9327C7.88171 16.9327 9.01261 15.8018 9.01261 14.4117C9.01261 13.0216 7.88171 11.8907 6.4916 11.8907ZM6.4916 15.6722C5.79644 15.6722 5.23109 15.1069 5.23109 14.4117C5.23109 13.7166 5.79644 13.1512 6.4916 13.1512C7.18656 13.1512 7.7521 13.7166 7.7521 14.4117C7.7521 15.1069 7.18675 15.6722 6.4916 15.6722ZM16.8027 4.67477C16.7502 4.57042 16.6697 4.48272 16.5703 4.42144C16.4708 4.36015 16.3563 4.3277 16.2395 4.3277H12.9202V5.58821H15.8508L17.567 9.00164L18.6935 8.43524L16.8027 4.67477Z" fill="white"/>
<path d="M8.44539 13.8025H13.2143V15.063H8.44539V13.8025ZM4.60082 13.8025H2.41598C2.06785 13.8025 1.78574 14.0847 1.78574 14.4327C1.78574 14.7809 2.06789 15.063 2.41598 15.063H4.60086C4.94898 15.063 5.23109 14.7808 5.23109 14.4327C5.23109 14.0846 4.94895 13.8025 4.60082 13.8025ZM19.8677 9.94954L18.628 8.3529C18.5691 8.27699 18.4937 8.21557 18.4074 8.17332C18.3211 8.13108 18.2263 8.10914 18.1303 8.10919H13.5504V3.69743C13.5504 3.34931 13.2683 3.0672 12.9202 3.0672H2.41598C2.06785 3.0672 1.78574 3.34935 1.78574 3.69743C1.78574 4.04552 2.06789 4.32767 2.41598 4.32767H12.2899V8.73943C12.2899 9.08755 12.5721 9.36966 12.9202 9.36966H17.8216L18.7395 10.552V13.8024H16.9958C16.6477 13.8024 16.3655 14.0846 16.3655 14.4327C16.3655 14.7808 16.6477 15.0629 16.9958 15.0629H19.3697C19.7179 15.0629 20 14.7808 20 14.4327V10.3361C20 10.1962 19.9534 10.0601 19.8677 9.94954ZM4.55883 10.6092H1.65965C1.31152 10.6092 1.02941 10.8914 1.02941 11.2395C1.02941 11.5876 1.31156 11.8697 1.65965 11.8697H4.55879C4.90691 11.8697 5.18902 11.5876 5.18902 11.2395C5.18906 10.8914 4.90691 10.6092 4.55883 10.6092ZM6.0084 8.13021H0.630234C0.282148 8.13021 0 8.41236 0 8.76048C0 9.10861 0.282148 9.39071 0.630234 9.39071H6.0084C6.35652 9.39071 6.63863 9.10857 6.63863 8.76048C6.63863 8.41239 6.35652 8.13021 6.0084 8.13021Z" fill="white"/>
<path d="M7.03782 5.65125H1.65965C1.31153 5.65125 1.02942 5.93339 1.02942 6.28148C1.02942 6.6296 1.31157 6.91171 1.65965 6.91171H7.03782C7.38594 6.91171 7.66805 6.62957 7.66805 6.28148C7.66809 5.93339 7.38594 5.65125 7.03782 5.65125Z" fill="white"/>
</svg>
