<svg width="36" height="36" viewBox="0 0 36 36" fill="none" xmlns="http://www.w3.org/2000/svg">
<path d="M18 25.7936C17.7152 25.7936 17.4408 25.6904 17.2268 25.503C16.4189 24.7965 15.6399 24.1326 14.9526 23.547L14.9491 23.544C12.9342 21.8269 11.1943 20.344 9.98363 18.8833C8.63035 17.2504 8 15.702 8 14.0106C8 12.3672 8.56351 10.8511 9.5866 9.74132C10.6219 8.61844 12.0425 8 13.5871 8C14.7416 8 15.7989 8.365 16.7296 9.08476C17.1992 9.44804 17.6249 9.89269 18 10.4113C18.3752 9.89269 18.8008 9.44804 19.2706 9.08476C20.2012 8.365 21.2585 8 22.413 8C23.9575 8 25.3782 8.61844 26.4135 9.74132C27.4366 10.8511 28 12.3672 28 14.0106C28 15.702 27.3698 17.2503 26.0165 18.8831C24.8058 20.344 23.066 21.8267 21.0514 23.5436C20.3629 24.1302 19.5828 24.7952 18.773 25.5033C18.559 25.6905 18.2843 25.7936 18 25.7936ZM13.5871 9.17156C12.3736 9.17156 11.2588 9.6559 10.4478 10.5354C9.62476 11.4282 9.1714 12.6623 9.1714 14.0106C9.1714 15.4331 9.70011 16.7054 10.8856 18.1358C12.0314 19.5184 13.7356 20.9707 15.7089 22.6524L15.7125 22.6554C16.4024 23.2433 17.1844 23.9099 17.9983 24.6215C18.8171 23.9085 19.6003 23.2409 20.2915 22.6521C22.2647 20.9704 23.9688 19.5184 25.1145 18.1358C26.2998 16.7054 26.8286 15.4331 26.8286 14.0106C26.8286 12.6623 26.3752 11.4282 25.5522 10.5354C24.7413 9.6559 23.6264 9.17156 22.413 9.17156C21.524 9.17156 20.7078 9.45418 19.9871 10.0114C19.3449 10.5082 18.8975 11.1363 18.6352 11.5757C18.5003 11.8017 18.2629 11.9366 18 11.9366C17.7371 11.9366 17.4996 11.8017 17.3647 11.5757C17.1026 11.1363 16.6552 10.5082 16.0128 10.0114C15.2922 9.45418 14.476 9.17156 13.5871 9.17156Z" fill="#D61842"/>
</svg>
