<svg width="40" height="40" viewBox="0 0 40 40" fill="none" xmlns="http://www.w3.org/2000/svg">
<rect width="40" height="40" rx="12" fill="#F2F2F2"/>
<g clip-path="url(#clip0_53_8165)">
<path d="M12.6667 15.1668H14.4907C14.6338 15.6933 14.9461 16.1581 15.3796 16.4895C15.813 16.8208 16.3434 17.0003 16.889 17.0003C17.4346 17.0003 17.965 16.8208 18.3984 16.4895C18.8319 16.1581 19.1442 15.6933 19.2873 15.1668H27.3333C27.5101 15.1668 27.6797 15.0966 27.8047 14.9716C27.9298 14.8466 28 14.677 28 14.5002C28 14.3234 27.9298 14.1538 27.8047 14.0288C27.6797 13.9037 27.5101 13.8335 27.3333 13.8335H19.2873C19.1442 13.307 18.8319 12.8422 18.3984 12.5109C17.965 12.1795 17.4346 12 16.889 12C16.3434 12 15.813 12.1795 15.3796 12.5109C14.9461 12.8422 14.6338 13.307 14.4907 13.8335H12.6667C12.4899 13.8335 12.3203 13.9037 12.1953 14.0288C12.0702 14.1538 12 14.3234 12 14.5002C12 14.677 12.0702 14.8466 12.1953 14.9716C12.3203 15.0966 12.4899 15.1668 12.6667 15.1668ZM16.8887 13.3335C17.1194 13.3335 17.345 13.4019 17.5368 13.5301C17.7287 13.6583 17.8782 13.8405 17.9665 14.0537C18.0548 14.2669 18.0779 14.5015 18.0329 14.7278C17.9879 14.9541 17.8768 15.162 17.7136 15.3251C17.5505 15.4883 17.3426 15.5994 17.1163 15.6444C16.89 15.6894 16.6554 15.6663 16.4422 15.578C16.229 15.4897 16.0468 15.3402 15.9186 15.1483C15.7904 14.9565 15.722 14.7309 15.722 14.5002C15.7224 14.1909 15.8454 13.8943 16.0641 13.6756C16.2828 13.4569 16.5794 13.3339 16.8887 13.3335Z" fill="#232524"/>
<path d="M27.3333 19.3332H25.5093C25.3665 18.8066 25.0542 18.3416 24.6208 18.0101C24.1874 17.6786 23.657 17.499 23.1113 17.499C22.5657 17.499 22.0352 17.6786 21.6018 18.0101C21.1684 18.3416 20.8562 18.8066 20.7133 19.3332H12.6667C12.4899 19.3332 12.3203 19.4034 12.1953 19.5284C12.0702 19.6535 12 19.823 12 19.9998C12 20.1767 12.0702 20.3462 12.1953 20.4713C12.3203 20.5963 12.4899 20.6665 12.6667 20.6665H20.7133C20.8562 21.1931 21.1684 21.6581 21.6018 21.9896C22.0352 22.3211 22.5657 22.5007 23.1113 22.5007C23.657 22.5007 24.1874 22.3211 24.6208 21.9896C25.0542 21.6581 25.3665 21.1931 25.5093 20.6665H27.3333C27.5101 20.6665 27.6797 20.5963 27.8047 20.4713C27.9298 20.3462 28 20.1767 28 19.9998C28 19.823 27.9298 19.6535 27.8047 19.5284C27.6797 19.4034 27.5101 19.3332 27.3333 19.3332ZM23.1113 21.1665C22.8806 21.1665 22.655 21.0981 22.4632 20.9699C22.2713 20.8417 22.1218 20.6595 22.0335 20.4463C21.9452 20.2331 21.9221 19.9986 21.9671 19.7722C22.0121 19.5459 22.1232 19.338 22.2864 19.1749C22.4495 19.0117 22.6574 18.9006 22.8837 18.8556C23.11 18.8106 23.3446 18.8337 23.5578 18.922C23.771 19.0103 23.9532 19.1598 24.0814 19.3517C24.2096 19.5435 24.278 19.7691 24.278 19.9998C24.2776 20.3092 24.1546 20.6057 23.9359 20.8244C23.7172 21.0431 23.4206 21.1662 23.1113 21.1665Z" fill="#232524"/>
<path d="M27.3333 24.8335H19.2873C19.1442 24.307 18.8319 23.8422 18.3984 23.5109C17.965 23.1795 17.4346 23 16.889 23C16.3434 23 15.813 23.1795 15.3796 23.5109C14.9461 23.8422 14.6338 24.307 14.4907 24.8335H12.6667C12.4899 24.8335 12.3203 24.9037 12.1953 25.0288C12.0702 25.1538 12 25.3234 12 25.5002C12 25.677 12.0702 25.8466 12.1953 25.9716C12.3203 26.0966 12.4899 26.1668 12.6667 26.1668H14.4907C14.6338 26.6933 14.9461 27.1581 15.3796 27.4895C15.813 27.8208 16.3434 28.0003 16.889 28.0003C17.4346 28.0003 17.965 27.8208 18.3984 27.4895C18.8319 27.1581 19.1442 26.6933 19.2873 26.1668H27.3333C27.5101 26.1668 27.6797 26.0966 27.8047 25.9716C27.9298 25.8466 28 25.677 28 25.5002C28 25.3234 27.9298 25.1538 27.8047 25.0288C27.6797 24.9037 27.5101 24.8335 27.3333 24.8335ZM16.8887 26.6668C16.6579 26.6668 16.4324 26.5984 16.2405 26.4702C16.0486 26.342 15.8991 26.1598 15.8108 25.9466C15.7225 25.7335 15.6994 25.4989 15.7444 25.2726C15.7894 25.0463 15.9005 24.8384 16.0637 24.6752C16.2269 24.5121 16.4348 24.4009 16.6611 24.3559C16.8874 24.3109 17.122 24.334 17.3351 24.4223C17.5483 24.5106 17.7305 24.6602 17.8587 24.852C17.9869 25.0439 18.0553 25.2694 18.0553 25.5002C18.0548 25.8094 17.9317 26.1059 17.713 26.3245C17.4944 26.5432 17.1979 26.6663 16.8887 26.6668Z" fill="#232524"/>
</g>
<rect x="28" y="6" width="8" height="8" rx="4" fill="#FC6240"/>
<defs>
<clipPath id="clip0_53_8165">
<rect width="16" height="16" fill="white" transform="translate(12 12)"/>
</clipPath>
</defs>
</svg>
