<svg width="98" height="24" viewBox="0 0 98 24" fill="none" xmlns="http://www.w3.org/2000/svg">
<path d="M13.1779 16.8886H13.1463C12.3428 16.8828 11.6599 16.7595 11.0946 16.5184C10.5092 16.2717 10.0473 15.9302 9.71154 15.4941L9.70006 15.4826C9.10034 15.9273 8.42601 16.2688 7.67134 16.5069C6.88224 16.7594 6.04722 16.8886 5.16629 16.8886C4.28536 16.8886 3.50487 16.7623 2.81906 16.5069C2.13326 16.2516 1.57945 15.89 1.14903 15.4195C0.727215 14.9403 0.443142 14.3492 0.302538 13.6433C0.153326 12.9403 0.176282 12.1369 0.365667 11.2331C0.555052 10.3522 0.873563 9.56311 1.31546 8.86585C1.75162 8.1686 2.28821 7.57751 2.92237 7.08972C3.55078 6.61054 4.25954 6.2404 5.05726 5.97929C5.84062 5.72678 6.6699 5.59766 7.55083 5.59766H13.5337L12.1707 12.0135C12.0071 12.7538 12.0674 13.3162 12.3515 13.7036C12.6269 14.091 13.0832 14.2861 13.7259 14.2861C14.0846 14.2861 14.3658 14.4123 14.5667 14.6677C14.7675 14.9231 14.8278 15.2272 14.7503 15.5859C14.6729 15.9446 14.4806 16.2516 14.1736 16.5041C13.8665 16.7566 13.5337 16.8857 13.175 16.8857L13.1779 16.8886ZM9.94397 8.20303H6.99415C6.56373 8.20303 6.15626 8.27763 5.76888 8.42397C5.36715 8.57318 5.01134 8.78264 4.70144 9.0581C4.39153 9.33355 4.12468 9.65492 3.89799 10.0193C3.67991 10.3866 3.52209 10.7912 3.42165 11.2359C3.32983 11.6864 3.31262 12.0996 3.37001 12.4726C3.44174 12.8543 3.57661 13.1728 3.78321 13.4339C3.98694 13.7007 4.25667 13.9102 4.58666 14.0565C4.91091 14.2115 5.28681 14.2889 5.71723 14.2889C6.14765 14.2889 6.58095 14.2115 6.97406 14.0565C7.37005 13.9073 7.72012 13.7007 8.03003 13.4339C8.33419 13.1728 8.59245 12.8514 8.8134 12.4726C9.04008 12.0996 9.19791 11.6864 9.28973 11.2359L9.94397 8.20303Z" fill="#231F20"/>
<path d="M13.1776 16.8877L13.7286 14.288C14.3684 14.288 14.9108 14.0958 15.3498 13.7056C15.7888 13.3182 16.0873 12.7558 16.2422 12.0155L18.1648 3H21.1978L19.2838 11.9725C19.1346 12.6783 18.8879 13.3297 18.5378 13.9322C18.1877 14.5348 17.7516 15.0542 17.2264 15.4903C16.7013 15.9264 16.0987 16.2679 15.4187 16.5089C14.7386 16.7528 13.9897 16.8762 13.1719 16.8848L13.1776 16.8877Z" fill="#231F20"/>
<path d="M31.685 16.5615C31.5358 17.0751 31.3292 17.5657 31.0624 18.0306C30.718 18.6303 30.279 19.1468 29.751 19.5829C29.2288 20.019 28.6233 20.3605 27.9347 20.6073C27.2661 20.8454 26.5171 20.9688 25.6936 20.9774L26.2646 18.3261C26.9045 18.3261 27.444 18.1339 27.8801 17.7436C28.2732 17.405 28.5516 16.9259 28.7151 16.3061C28.5401 16.3778 28.3565 16.4438 28.1642 16.5069C27.3808 16.7594 26.5516 16.8886 25.6706 16.8886C24.7897 16.8886 23.9977 16.7623 23.3148 16.5069C22.6376 16.2544 22.0838 15.8872 21.6562 15.408C21.2344 14.9345 20.9475 14.3463 20.8011 13.6433C20.6605 12.9403 20.6835 12.1369 20.8757 11.2331C21.0651 10.3522 21.3808 9.56024 21.8169 8.85438C22.2617 8.15712 22.8012 7.56891 23.4324 7.08972C24.0609 6.6048 24.7668 6.23466 25.5559 5.97929C26.345 5.72678 27.1828 5.59766 28.0724 5.59766C28.9619 5.59766 29.7309 5.72104 30.4081 5.96781C31.0911 6.22031 31.6449 6.59045 32.0667 7.07824C32.4828 7.55743 32.7611 8.14564 32.9017 8.8429C33.0509 9.54015 33.028 10.3378 32.8386 11.2302L32.6693 12.0221C32.5143 12.7624 32.5775 13.322 32.8587 13.7036C33.1341 14.091 33.5875 14.2861 34.2217 14.2861C34.5803 14.2861 34.8616 14.4123 35.0624 14.6677C35.2633 14.9231 35.3235 15.2272 35.2461 15.5859C35.1686 15.9446 34.9763 16.2516 34.6693 16.5041C34.3623 16.7566 34.0294 16.8857 33.6707 16.8857H33.6392C32.8787 16.88 32.2274 16.7709 31.685 16.5586V16.5615ZM26.2216 14.2775C26.6577 14.2775 27.0767 14.2029 27.4727 14.0565C27.8715 13.9073 28.2216 13.7007 28.5286 13.4339C28.8357 13.167 29.0968 12.8456 29.3149 12.4726C29.5329 12.0996 29.6908 11.6864 29.7912 11.2359C29.8543 10.9547 29.8859 10.685 29.8859 10.4325C29.8859 9.86152 29.7453 9.39382 29.4641 9.02654C29.048 8.47562 28.3966 8.20304 27.51 8.20304C27.0795 8.20304 26.6663 8.27764 26.2675 8.42397C25.8686 8.57031 25.5128 8.78264 25.2 9.05236C24.8873 9.32495 24.6175 9.64345 24.3966 10.0136C24.1756 10.3837 24.0178 10.7912 23.926 11.2331C23.8629 11.5085 23.8313 11.7696 23.8313 12.0164C23.8313 12.1714 23.8456 12.3234 23.8743 12.4698C23.9375 12.8428 24.0723 13.1642 24.2761 13.431C24.4798 13.6979 24.7467 13.9073 25.0738 14.0536C25.4009 14.2 25.7825 14.2746 26.2216 14.2746V14.2775Z" fill="#231F20"/>
<path d="M34.516 20.9995C34.3267 20.9995 34.1487 20.9708 33.9881 20.9163C33.8274 20.8589 33.6868 20.7757 33.572 20.6666C33.4543 20.5576 33.374 20.417 33.3223 20.2477C33.2937 20.1645 33.2793 20.0727 33.2793 19.9723C33.2793 19.8804 33.2908 19.7857 33.3109 19.6853C33.4027 19.2836 33.6208 18.968 33.9651 18.7384C34.3094 18.5089 34.6796 18.3941 35.0756 18.3941C35.2506 18.3941 35.4257 18.4228 35.5921 18.4773C35.7585 18.5318 35.9049 18.6151 36.0254 18.7212C36.2291 18.8962 36.3324 19.1201 36.3324 19.3869C36.3324 19.4787 36.3181 19.5763 36.2894 19.6824C36.2463 19.8948 36.166 20.0813 36.0455 20.242C35.925 20.4027 35.7815 20.5404 35.6179 20.6552C35.4515 20.7671 35.2736 20.8531 35.0785 20.9077C34.8833 20.9651 34.6968 20.9909 34.5132 20.9909L34.516 20.9995ZM37.4859 15.7055C37.001 16.0642 36.4615 16.3425 35.8704 16.5405C35.1932 16.7586 34.4615 16.8676 33.6724 16.8676L34.2234 14.268C34.8374 14.268 35.3711 14.0786 35.8303 13.697C36.2808 13.3153 36.5935 12.7099 36.7714 11.8807L37.8389 6.90234H42.0972L41.5463 9.50198H40.298L39.7586 12.027C39.6036 12.7673 39.6667 13.3268 39.948 13.7084C40.2234 14.0958 40.6768 14.2909 41.311 14.2909C41.6696 14.2909 41.9508 14.4172 42.1517 14.6726C42.3526 14.9251 42.4128 15.2321 42.3354 15.5907C42.2579 15.9494 42.0628 16.2564 41.7529 16.5089C41.4516 16.7614 41.1216 16.8906 40.7715 16.8906H40.7084C39.9193 16.8762 39.2421 16.7528 38.6796 16.5204C38.2004 16.3167 37.8016 16.0441 37.4859 15.7084V15.7055ZM38.1316 20.9995C37.7212 20.9995 37.4056 20.8876 37.1789 20.6609C36.9809 20.4859 36.8834 20.2563 36.8834 19.9751C36.8834 19.8833 36.8948 19.7886 36.9149 19.6882C37.0125 19.2807 37.2363 18.9622 37.5806 18.7384C37.925 18.5146 38.2923 18.3999 38.6796 18.3999C39.067 18.3999 39.3798 18.5089 39.6409 18.7269C39.8389 18.902 39.9365 19.1315 39.9365 19.4127C39.9365 19.4959 39.925 19.5878 39.9049 19.6882C39.8131 20.0899 39.5893 20.4141 39.2277 20.6609C38.8891 20.8876 38.5218 20.9995 38.1287 20.9995H38.1316Z" fill="#231F20"/>
<path d="M44.5141 15.7249C44.0636 16.0491 43.5557 16.3102 42.9932 16.5082C42.3247 16.755 41.5815 16.8784 40.7637 16.8784L41.3146 14.2787C41.9545 14.2787 42.4968 14.0894 42.9416 13.7077C43.3778 13.3204 43.6791 12.758 43.8397 12.0177L45.1913 5.61328H49.5127L48.9618 8.21292H47.6504L46.8785 11.8685C46.6949 12.7149 46.7523 13.3261 47.0478 13.7077C47.3434 14.0894 47.8082 14.2787 48.4424 14.2787C49.0765 14.2787 49.5902 14.0894 50.0493 13.7077C50.5084 13.3261 50.824 12.7207 50.9991 11.8914L52.3305 5.61328H56.652L56.101 8.21292H54.7897L54.0178 11.8685C53.8341 12.7149 53.8915 13.3261 54.1871 13.7077C54.4769 14.0894 54.9417 14.2787 55.5816 14.2787C56.2215 14.2787 56.7294 14.0894 57.1885 13.7077C57.6477 13.3261 57.9633 12.7207 58.1383 11.8914L59.4698 5.61328H63.7281L63.1771 8.21292H61.9289L61.1455 11.8914C60.9762 12.6949 60.7151 13.4036 60.3622 14.0148C60.0035 14.6345 59.5559 15.1568 59.0193 15.5786C58.4913 16.009 57.8887 16.3332 57.2115 16.5513C56.5429 16.7693 55.8141 16.8784 55.0249 16.8784C54.2358 16.8784 53.5271 16.7751 52.9446 16.5714C52.4223 16.382 51.9977 16.1065 51.6648 15.7479C51.1856 16.0922 50.6548 16.3619 50.0694 16.5513C49.4008 16.7693 48.6719 16.8784 47.8828 16.8784C47.0937 16.8784 46.385 16.7751 45.8025 16.5714C45.2745 16.382 44.8412 16.1008 44.5026 15.7249H44.5141Z" fill="#231F20"/>
<path d="M97.9997 0L95.4704 6.949L94.8975 8.52354L92.3682 15.4725L91.7953 17.051L89.266 24H81.873L84.4023 17.051L84.9791 15.4725L87.5084 8.52354L88.0813 6.949L90.6106 0H97.9997Z" fill="#EF7822"/>
<path d="M88.9313 0L86.402 6.949L85.8291 8.52354L83.2999 15.4725L82.7231 17.051L80.1938 24H72.8008L75.3301 17.051L75.903 15.4725L78.4322 8.52354L79.0051 6.949L81.5344 0H88.9313Z" fill="#EF7822"/>
<path d="M79.8571 0L77.3278 6.949L76.7549 8.52354L74.2256 15.4725L73.6489 17.051L71.1235 24H63.7266L66.2559 17.051L66.8326 15.4725L69.3619 8.52354L69.9348 6.949L72.4641 0H79.8571Z" fill="#EF7822"/>
</svg>
