<svg width="20" height="21" viewBox="0 0 20 21" fill="none" xmlns="http://www.w3.org/2000/svg">
<g clip-path="url(#clip0_3_2607)">
<path d="M20 9.87248C19.8795 7.9225 19.191 6.05041 18.0193 4.487C16.8477 2.9236 15.2442 1.73723 13.4064 1.07414C11.5687 0.411063 9.57708 0.300259 7.67713 0.755394C5.77718 1.21053 4.05195 2.21171 2.71412 3.6355C1.3763 5.05929 0.484362 6.84345 0.148279 8.76803C-0.187803 10.6926 0.0466582 12.6735 0.822758 14.4664C1.59886 16.2593 2.88267 17.786 4.51592 18.8581C6.14917 19.9302 8.06046 20.501 10.0142 20.5H15.8333C16.9381 20.4989 17.9972 20.0595 18.7784 19.2784C19.5596 18.4972 19.9989 17.438 20 16.3333V9.87248ZM18.3333 16.3333C18.3333 16.9964 18.0699 17.6322 17.6011 18.1011C17.1323 18.5699 16.4964 18.8333 15.8333 18.8333H10.0142C8.83827 18.8328 7.6757 18.5844 6.60224 18.1044C5.52879 17.6244 4.56856 16.9235 3.78416 16.0475C2.99597 15.1719 2.4041 14.1379 2.04824 13.0148C1.69238 11.8917 1.58074 10.7056 1.72083 9.53581C1.94202 7.69076 2.77099 5.9718 4.07703 4.64992C5.38307 3.32803 7.09191 2.47841 8.93416 2.23498C9.29352 2.18994 9.65532 2.16712 10.0175 2.16665C11.9596 2.16135 13.8415 2.8399 15.3333 4.08331C16.2046 4.80743 16.9198 5.70094 17.4354 6.70967C17.9511 7.7184 18.2566 8.82135 18.3333 9.95165V16.3333Z" fill="#FC6240"/>
<path d="M6.66666 7.99992H9.99999C10.221 7.99992 10.433 7.91212 10.5893 7.75584C10.7455 7.59956 10.8333 7.3876 10.8333 7.16659C10.8333 6.94557 10.7455 6.73361 10.5893 6.57733C10.433 6.42105 10.221 6.33325 9.99999 6.33325H6.66666C6.44565 6.33325 6.23369 6.42105 6.07741 6.57733C5.92113 6.73361 5.83333 6.94557 5.83333 7.16659C5.83333 7.3876 5.92113 7.59956 6.07741 7.75584C6.23369 7.91212 6.44565 7.99992 6.66666 7.99992ZM13.3333 9.66659H6.66666C6.44565 9.66659 6.23369 9.75438 6.07741 9.91066C5.92113 10.0669 5.83333 10.2789 5.83333 10.4999C5.83333 10.7209 5.92113 10.9329 6.07741 11.0892C6.23369 11.2455 6.44565 11.3333 6.66666 11.3333H13.3333C13.5543 11.3333 13.7663 11.2455 13.9226 11.0892C14.0789 10.9329 14.1667 10.7209 14.1667 10.4999C14.1667 10.2789 14.0789 10.0669 13.9226 9.91066C13.7663 9.75438 13.5543 9.66659 13.3333 9.66659ZM13.3333 12.9999H6.66666C6.44565 12.9999 6.23369 13.0877 6.07741 13.244C5.92113 13.4003 5.83333 13.6122 5.83333 13.8333C5.83333 14.0543 5.92113 14.2662 6.07741 14.4225C6.23369 14.5788 6.44565 14.6666 6.66666 14.6666H13.3333C13.5543 14.6666 13.7663 14.5788 13.9226 14.4225C14.0789 14.2662 14.1667 14.0543 14.1667 13.8333C14.1667 13.6122 14.0789 13.4003 13.9226 13.244C13.7663 13.0877 13.5543 12.9999 13.3333 12.9999Z" fill="#FC6240"/>
</g>
<defs>
<clipPath id="clip0_3_2607">
<rect width="20" height="20" fill="white" transform="translate(0 0.5)"/>
</clipPath>
</defs>
</svg>
