<svg width="19" height="20" viewBox="0 0 19 20" fill="none" xmlns="http://www.w3.org/2000/svg">
<path d="M6.34874 13.5179L6.34881 13.518L7.76905 14.9379C7.76917 14.938 7.76929 14.9381 7.76941 14.9383C8.02981 15.1994 8.37336 15.3304 8.7145 15.3304C9.05603 15.3304 9.39914 15.1991 9.65944 14.9388L12.691 11.9072C13.213 11.3854 13.213 10.5396 12.6911 10.0177C12.1692 9.49544 11.3231 9.49624 10.8016 10.0177L8.71464 12.1047L8.23872 11.6286L8.23862 11.6285C7.71674 11.1066 6.87062 11.1066 6.34874 11.6285L6.34829 11.6289C5.82766 12.1504 5.827 12.9962 6.34874 13.5179ZM14.2881 0.75C14.4203 0.75 14.5462 0.822452 14.6127 0.937418L16.4978 4.19676H10.8561V0.75H14.2881ZM4.71228 0.75H8.18372V4.19676H2.50892L4.3873 0.937955C4.38734 0.937881 4.38739 0.937806 4.38743 0.937732C4.38745 0.937696 4.38747 0.93766 4.38749 0.937624C4.45421 0.822284 4.57979 0.75 4.71228 0.75ZM1.54126 18.6218V6.86906H17.4587V18.6218C17.4587 18.9673 17.1762 19.25 16.83 19.25H2.16989C1.82379 19.25 1.54126 18.9673 1.54126 18.6218Z" stroke="#777777" stroke-width="1.5"/>
</svg>
