<svg width="20" height="21" viewBox="0 0 20 21" fill="none" xmlns="http://www.w3.org/2000/svg">
<g clip-path="url(#clip0_2615_1258)">
<path d="M14.4221 3.57345C13.6525 2.94627 12.7583 2.49 11.7988 2.23493C10.8393 1.97986 9.83657 1.93184 8.8571 2.09405C7.87764 2.25626 6.94389 2.62499 6.11787 3.17576C5.29184 3.72652 4.59244 4.44672 4.06611 5.28852C3.53978 6.13033 3.19855 7.07448 3.0651 8.05827C2.93166 9.04207 3.00903 10.043 3.29209 10.9946C3.57516 11.9462 4.05743 12.8267 4.70688 13.5776C5.35634 14.3285 6.15812 14.9327 7.05898 15.3499L8.66645 18.5659C8.79099 18.8153 8.98256 19.0251 9.21968 19.1717C9.45679 19.3183 9.73006 19.396 10.0088 19.396C10.2876 19.396 10.5609 19.3183 10.798 19.1717C11.0351 19.0251 11.2267 18.8153 11.3512 18.5659L12.9717 15.3509C14.0469 14.8492 14.9769 14.0824 15.6743 13.1226C16.3717 12.1628 16.8137 11.0414 16.9587 9.86388C17.1037 8.68633 16.947 7.49124 16.5033 6.39088C16.0596 5.29052 15.3435 4.32102 14.4221 3.57345Z" fill="#FC6240"/>
<path d="M1.99854 13.5114C1.82711 13.5116 1.65851 13.4677 1.50892 13.384C1.35933 13.3002 1.23377 13.1795 1.14429 13.0332C0.301974 11.6543 -0.091575 10.048 0.0179561 8.43588C0.111989 7.21079 0.498957 6.02621 1.14629 4.98186C1.2861 4.75636 1.50976 4.59564 1.76808 4.53505C1.89598 4.50504 2.02854 4.50053 2.15819 4.52176C2.28784 4.54298 2.41204 4.58954 2.52369 4.65877C2.63535 4.728 2.73228 4.81854 2.80894 4.92522C2.88561 5.03191 2.94051 5.15265 2.97051 5.28056C3.00051 5.40846 3.00503 5.54102 2.9838 5.67067C2.96257 5.80032 2.91602 5.92452 2.84679 6.03617C2.36833 6.80627 2.08188 7.68003 2.01154 8.58392C1.93133 9.77837 2.22425 10.9682 2.84979 11.9889C2.94254 12.1405 2.99325 12.314 2.9967 12.4916C3.00015 12.6693 2.95622 12.8447 2.86943 12.9997C2.78264 13.1547 2.65612 13.2839 2.50289 13.3738C2.34965 13.4637 2.17522 13.5112 1.99754 13.5114H1.99854ZM18.0013 13.5114C17.8236 13.5112 17.6491 13.4637 17.4959 13.3738C17.3427 13.2839 17.2161 13.1547 17.1294 12.9997C17.0426 12.8447 16.9986 12.6693 17.0021 12.4916C17.0055 12.314 17.0563 12.1405 17.149 11.9889C17.7745 10.9682 18.0675 9.77837 17.9872 8.58392C17.9169 7.68003 17.6305 6.80627 17.152 6.03617C17.0122 5.81067 16.9677 5.53887 17.0283 5.28056C17.0889 5.02224 17.2496 4.79858 17.4751 4.65877C17.7006 4.51896 17.9724 4.47445 18.2307 4.53505C18.489 4.59564 18.7127 4.75636 18.8525 4.98186C19.5002 6.02612 19.8875 7.2107 19.9818 8.43588C20.0921 10.0482 19.6982 11.6549 18.8545 13.0332C18.7651 13.1793 18.6397 13.3 18.4903 13.3837C18.3409 13.4674 18.1725 13.5114 18.0013 13.5114Z" fill="#FC6240" fill-opacity="0.5"/>
<path d="M10.0089 12.0109C11.6663 12.0109 13.0098 10.6674 13.0098 9.01005C13.0098 7.35271 11.6663 6.00917 10.0089 6.00917C8.3516 6.00917 7.00806 7.35271 7.00806 9.01005C7.00806 10.6674 8.3516 12.0109 10.0089 12.0109Z" fill="white"/>
</g>
<defs>
<clipPath id="clip0_2615_1258">
<rect width="20" height="20" fill="white" transform="translate(0 0.5)"/>
</clipPath>
</defs>
</svg>
