<svg width="48" height="48" viewBox="0 0 48 48" fill="none" xmlns="http://www.w3.org/2000/svg">
<path d="M0.5 24C0.5 11.0213 11.0213 0.5 24 0.5C36.9787 0.5 47.5 11.0213 47.5 24C47.5 36.9787 36.9787 47.5 24 47.5C11.0213 47.5 0.5 36.9787 0.5 24Z" fill="#FDF3F5"/>
<path d="M34.3294 25.3812C33.6299 25.3812 33.0115 25.832 32.7957 26.4976C31.6295 30.1004 28.2478 32.7144 24.2613 32.7144C19.3122 32.7144 15.2857 28.6874 15.2857 23.738C15.2857 19.7679 17.8781 16.397 21.4588 15.2175C22.1501 14.9897 22.6186 14.3433 22.6186 13.6145C22.6186 13.0983 22.3716 12.613 21.9544 12.3095C21.5373 12.0055 20.9999 11.9197 20.509 12.0777C15.5785 13.6656 12.0001 18.287 12.0001 23.7381C12.0001 30.4995 17.5003 36 24.2613 36C29.6906 36 34.2964 32.4498 35.9015 27.5505C36.0666 27.0467 35.9801 26.4945 35.6688 26.0651C35.3584 25.6359 34.8604 25.3812 34.3294 25.3812Z" fill="#FC6240"/>
<path d="M27.019 15.2033C29.7445 16.0856 31.9012 18.2376 32.79 20.9603C33.0114 21.6381 33.6427 22.0958 34.3558 22.0958H34.3896C34.9045 22.0958 35.3884 21.8496 35.6915 21.4336C35.9939 21.0178 36.0805 20.4815 35.9225 19.9915C34.7202 16.2528 31.7693 13.2958 28.0338 12.0847C27.5388 11.9243 26.9958 12.0105 26.5748 12.3164C26.1536 12.6228 25.9042 13.1122 25.9042 13.633V13.6688C25.904 14.3675 26.3547 14.9879 27.019 15.2033Z" fill="#FC6240"/>
<path d="M0.5 24C0.5 11.0213 11.0213 0.5 24 0.5C36.9787 0.5 47.5 11.0213 47.5 24C47.5 36.9787 36.9787 47.5 24 47.5C11.0213 47.5 0.5 36.9787 0.5 24Z" stroke="#F7D1D9"/>
</svg>
