<svg width="16" height="17" viewBox="0 0 16 17" fill="none" xmlns="http://www.w3.org/2000/svg">
<g clip-path="url(#clip0_43_2429)">
<path d="M5.13802 6.67069C5.19991 6.73258 5.24901 6.80606 5.28251 6.88694C5.31601 6.96781 5.33325 7.05448 5.33325 7.14202C5.33325 7.22955 5.31601 7.31623 5.28251 7.3971C5.24901 7.47797 5.19991 7.55146 5.13802 7.61335C5.07612 7.67525 5.00264 7.72435 4.92177 7.75784C4.8409 7.79134 4.75422 7.80858 4.66668 7.80858C4.57915 7.80858 4.49247 7.79134 4.4116 7.75784C4.33073 7.72435 4.25725 7.67525 4.19535 7.61335C4.07034 7.48835 4.00012 7.3188 4.00012 7.14202C4.00012 6.96523 4.07034 6.79569 4.19535 6.67069C4.32036 6.54568 4.4899 6.47545 4.66668 6.47545C4.84347 6.47545 5.01301 6.54568 5.13802 6.67069ZM14.3727 10.7274L13.996 11.104C13.9792 11.954 13.6368 12.7651 13.0393 13.37L10.928 15.5087C10.6199 15.8226 10.2524 16.0719 9.8468 16.2421C9.44125 16.4123 9.00584 16.5 8.56602 16.5H8.55468C7.66468 16.5 6.82802 16.1534 6.19868 15.524L1.25468 10.622C1.0416 10.4105 0.879108 10.1535 0.779362 9.87033C0.679615 9.58714 0.645198 9.28506 0.678684 8.98668L1.18868 4.37602C1.20498 4.22839 1.2701 4.09043 1.37373 3.98403C1.47735 3.87763 1.61354 3.80888 1.76068 3.78869L6.35335 3.16069C6.65896 3.11979 6.96988 3.14969 7.2621 3.24806C7.55432 3.34643 7.82002 3.51064 8.03868 3.72802L13.022 8.66935C13.28 8.92735 13.4867 9.21802 13.6427 9.52802C13.9094 9.14236 14.0326 8.67549 13.9909 8.20846C13.9493 7.74143 13.7454 7.30373 13.4147 6.97135L8.35402 2.03469C8.28096 1.96056 8.19169 1.9044 8.09325 1.87062C7.9948 1.83684 7.88986 1.82636 7.78668 1.84002L3.19402 2.46802C3.01882 2.49194 2.84129 2.44534 2.70042 2.33847C2.55955 2.2316 2.46685 2.07318 2.44268 1.89802C2.41896 1.72293 2.46564 1.54557 2.5725 1.40485C2.67935 1.26413 2.83765 1.17152 3.01268 1.14735L7.60602 0.518686C7.91171 0.476953 8.22292 0.506511 8.51529 0.605048C8.80766 0.703586 9.07328 0.86843 9.29135 1.08669L14.3507 6.02335C15.648 7.32002 15.6553 9.42802 14.372 10.728L14.3727 10.7274ZM12.0807 9.61402L7.09735 4.67269C7.02406 4.59983 6.93507 4.54471 6.8372 4.51155C6.73933 4.47839 6.63516 4.46806 6.53268 4.48135L2.45602 5.03935L2.00335 9.13269C1.99219 9.23192 2.00361 9.33239 2.03674 9.42659C2.06987 9.52079 2.12386 9.60629 2.19468 9.67669L7.13868 14.5787C7.51802 14.9587 8.02002 15.166 8.55402 15.166H8.56068C8.82468 15.1662 9.08605 15.1137 9.32944 15.0114C9.57284 14.9092 9.79335 14.7593 9.97802 14.5707L12.0893 12.432C12.4594 12.0556 12.6661 11.5483 12.6643 11.0204C12.6626 10.4925 12.4526 9.98666 12.08 9.61269L12.0807 9.61402Z" fill="#D61842"/>
</g>
<defs>
<clipPath id="clip0_43_2429">
<rect width="16" height="16" fill="white" transform="translate(0 0.5)"/>
</clipPath>
</defs>
</svg>
