<svg width="36" height="36" viewBox="0 0 36 36" fill="none" xmlns="http://www.w3.org/2000/svg">
<g clip-path="url(#clip0_2277_3029)">
<path d="M12.7809 14.4758H22.3461C22.7559 14.4758 23.0883 14.1433 23.0883 13.7336C23.0883 13.3238 22.7559 12.9914 22.3461 12.9914H12.7809C12.3711 12.9914 12.0387 13.3238 12.0387 13.7336C12.0387 14.1433 12.3711 14.4758 12.7809 14.4758ZM19.2 18.3601C19.2 17.9504 18.8676 17.618 18.4578 17.618H12.7809C12.3711 17.618 12.0387 17.9504 12.0387 18.3601C12.0387 18.7699 12.3711 19.1023 12.7809 19.1023H18.4578C18.8676 19.1023 19.2 18.7699 19.2 18.3601Z" fill="#D61842"/>
<path d="M27.009 20.6449C27.0887 19.7727 27.1422 18.7562 27.1434 17.5715C27.141 15.3422 26.9539 13.7098 26.7543 12.5102C26.4051 10.5336 24.6098 8.73828 22.6332 8.38906C21.4336 8.18945 19.8012 8.00234 17.5715 8C15.3422 8.00234 13.7094 8.18945 12.5098 8.38906C10.5336 8.73828 8.73828 10.5336 8.38906 12.5102C8.18945 13.7098 8.00273 15.3422 8 17.5715C8.00273 19.8008 8.18945 21.4336 8.38906 22.6332C8.73828 24.6098 10.5336 26.4051 12.5102 26.7543C13.7098 26.9539 15.3422 27.1406 17.5719 27.1434C18.7562 27.1422 19.7727 27.0887 20.6445 27.009C21.4195 27.6289 22.4023 28 23.4719 28C25.9727 28 28.0004 25.9727 28.0004 23.4719C28.0004 22.4023 27.6293 21.4195 27.0094 20.6449H27.009ZM17.5719 25.659C15.8133 25.657 14.2398 25.5367 12.7621 25.2914C12.1055 25.1738 11.4402 24.8055 10.8891 24.2543C10.3379 23.7031 9.96992 23.0383 9.85195 22.3813C9.60664 20.9051 9.48672 19.3316 9.48438 17.5715C9.48633 15.8121 9.60664 14.2387 9.85195 12.7617C9.96953 12.1051 10.3379 11.4402 10.8891 10.8891C11.4402 10.3379 12.1051 9.96992 12.7621 9.85195C14.2391 9.60664 15.8125 9.48672 17.5719 9.48438C19.3305 9.48633 20.9039 9.60664 22.3816 9.85195C23.0383 9.96953 23.7031 10.3379 24.2547 10.8891C24.8059 11.4402 25.1738 12.1051 25.2918 12.7621C25.5371 14.2398 25.657 15.8129 25.6594 17.5719C25.6586 18.232 25.6406 18.8652 25.6063 19.4777C24.9703 19.1371 24.2437 18.9441 23.4719 18.9441C20.9711 18.9441 18.9434 20.9715 18.9434 23.4723C18.9434 24.2441 19.1367 24.9703 19.477 25.6063C18.8645 25.6406 18.2312 25.6586 17.5715 25.659H17.5719ZM23.4719 26.5156C21.7934 26.5156 20.4277 25.1504 20.4277 23.4719C20.4277 21.7934 21.7934 20.4281 23.4719 20.4281C25.1504 20.4281 26.516 21.7934 26.516 23.4719C26.516 25.1504 25.1504 26.5156 23.4719 26.5156Z" fill="#D61842"/>
<path d="M23.8703 24.3375C23.7758 24.3219 23.6473 24.307 23.4719 24.307C23.2965 24.307 23.168 24.3219 23.0734 24.3375C22.918 24.3648 22.7766 24.5062 22.7488 24.6621C22.7332 24.7566 22.7184 24.8851 22.7184 25.0605C22.7184 25.2359 22.7332 25.3644 22.7488 25.459C22.7762 25.6144 22.9176 25.7558 23.0734 25.7836C23.168 25.7992 23.2965 25.8141 23.4719 25.8141C23.6473 25.8141 23.7758 25.7992 23.8703 25.7836C24.0258 25.7562 24.1672 25.6148 24.1949 25.459C24.2105 25.3644 24.2254 25.2359 24.2254 25.0605C24.2254 24.8851 24.2105 24.7566 24.1949 24.6621C24.1676 24.5066 24.0262 24.3652 23.8703 24.3375ZM23.4715 23.8449C23.8812 23.8449 24.2137 23.5125 24.2137 23.1027V21.8644C24.2137 21.4547 23.8812 21.1223 23.4715 21.1223C23.0617 21.1223 22.7293 21.4547 22.7293 21.8644V23.1027C22.7293 23.5125 23.0617 23.8449 23.4715 23.8449Z" fill="#D61842"/>
</g>
<defs>
<clipPath id="clip0_2277_3029">
<rect width="20" height="20" fill="white" transform="translate(8 8)"/>
</clipPath>
</defs>
</svg>
