<svg width="48" height="48" viewBox="0 0 48 48" fill="none" xmlns="http://www.w3.org/2000/svg">
<path d="M0.5 24C0.5 11.0213 11.0213 0.5 24 0.5C36.9787 0.5 47.5 11.0213 47.5 24C47.5 36.9787 36.9787 47.5 24 47.5C11.0213 47.5 0.5 36.9787 0.5 24Z" fill="#FDF3F5"/>
<path d="M33.3442 26.8914L32.1263 27.5945L31.6296 27.8813C31.6465 28.0892 31.655 28.2978 31.655 28.5065C31.655 28.7151 31.6465 28.9238 31.6296 29.1316L32.1263 29.4184L33.3442 30.1215L32.6411 31.3393L31.8475 32.7138H35.9997V23.9248C35.1292 24.7968 33.9265 25.3371 32.6 25.3371H32.4468L32.6411 25.6736L33.3442 26.8914Z" fill="#FC6240"/>
<path d="M16.1525 32.7138L15.359 31.3393L14.6558 30.1215L15.8737 29.4184L16.3704 29.1315C16.3535 28.9237 16.345 28.715 16.345 28.5064C16.345 28.2978 16.3535 28.0891 16.3704 27.8812L15.8737 27.5945L14.6558 26.8914L15.359 25.6735L15.5532 25.3371H15.4C14.0734 25.3371 12.8708 24.7968 12.0003 23.9248V32.7138L16.1525 32.7138Z" fill="#FC6240"/>
<path d="M19.7814 14.9881H12.0003V20.5312C12.0003 22.4058 13.5254 23.9308 15.4 23.9308H16.3651L17.2261 22.4395L17.9292 21.2216L19.147 21.9247L19.6445 22.2119C19.9877 21.9745 20.3503 21.7648 20.7266 21.5861V21.0128V19.6065H22.1328H25.8671H27.2733V21.0128V21.5861C27.6496 21.7648 28.0122 21.9745 28.3554 22.2119L28.8529 21.9247L30.0707 21.2216L30.7738 22.4395L31.6349 23.9308H32.5999C34.4745 23.9308 35.9996 22.4058 35.9996 20.5312H35.9996V14.9881H28.2186V13.4062H29.6248V12H18.3751V13.4062H19.7813V14.9881L19.7814 14.9881ZM21.1876 13.4062H26.8124V14.9881H21.1876L21.1876 13.4062Z" fill="#FC6240"/>
<circle cx="27.9487" cy="27.7255" r="2.55883" transform="rotate(-67.4859 27.9487 27.7255)" fill="#FC6240"/>
<path d="M28.2305 33.1049L29.5561 33.8703L31.4233 30.6362L30.0988 29.8715C30.1968 29.4321 30.2488 28.9754 30.2488 28.5064C30.2488 28.0375 30.1968 27.5807 30.0988 27.1413L31.4233 26.3766L29.5561 23.1426L28.2305 23.9079C27.5611 23.2917 26.757 22.8197 25.8672 22.5414V21.0128H22.1329V22.5414C21.243 22.8197 20.4389 23.2917 19.7695 23.9079L18.444 23.1426L16.5768 26.3766L17.9012 27.1413C17.8033 27.5807 17.7512 28.0375 17.7512 28.5064C17.7512 28.9754 17.8032 29.4321 17.9012 29.8715L16.5768 30.6362L18.444 33.8703L19.7695 33.1049C20.4389 33.7211 21.243 34.1931 22.1328 34.4714V36H25.8672V34.4714C26.757 34.1931 27.5611 33.7211 28.2305 33.1049ZM24 24.5419C26.186 24.5419 27.9644 26.3204 27.9644 28.5064C27.9644 30.6924 26.186 32.4708 24 32.4708C21.814 32.4708 20.0356 30.6924 20.0356 28.5064C20.0356 26.3204 21.814 24.5419 24 24.5419Z" fill="#FC6240"/>
<path d="M0.5 24C0.5 11.0213 11.0213 0.5 24 0.5C36.9787 0.5 47.5 11.0213 47.5 24C47.5 36.9787 36.9787 47.5 24 47.5C11.0213 47.5 0.5 36.9787 0.5 24Z" stroke="#F7D1D9"/>
</svg>
