<svg width="20" height="20" viewBox="0 0 20 20" fill="none" xmlns="http://www.w3.org/2000/svg">
<g clip-path="url(#clip0_275_1677)">
<path d="M17.6543 9.79492C17.6486 9.80707 17.643 9.81918 17.6373 9.83129C17.4147 10.3049 16.7027 10.1169 16.7465 9.59539C16.8267 8.64231 16.7088 7.65715 16.3654 6.69785C15.2507 3.58402 11.5082 0.038517 8.19406 4.04328e-05C7.84015 -0.00406113 7.63695 0.401095 7.84582 0.686798C8.12429 1.06766 8.35043 1.49699 8.51054 1.96793C9.03609 3.51383 8.71257 5.15969 7.78718 6.3825C7.4014 6.89227 6.58226 6.64051 6.56878 6.00137L6.56851 5.98746C6.56308 5.64863 6.61867 5.32332 6.72531 5.02203C6.77234 4.88918 6.64918 4.75844 6.51425 4.7991C4.63546 5.36539 3.20683 8.13008 3.20683 10.1021C3.20683 10.2461 3.21484 10.3882 3.22972 10.5283C3.23161 10.7976 3.27847 11.0648 3.36835 11.3186L3.37839 11.3468C3.40725 11.4269 3.43757 11.5065 3.46933 11.5855C3.02162 11.0385 2.64438 10.4374 2.34648 9.79637C2.20738 9.49684 1.7671 9.55629 1.71304 9.88211C1.61671 10.4623 1.56628 11.0283 1.56628 11.5663C1.56628 16.2241 5.34218 20 10 20C14.6578 20 18.4337 16.2241 18.4337 11.5663C18.4337 11.0282 18.3833 10.4623 18.2869 9.88195C18.233 9.55692 17.793 9.49602 17.6543 9.79492Z" fill="url(#paint0_linear_275_1677)"/>
<path d="M3.20695 10.1021C3.20695 10.2461 3.21496 10.3882 3.22984 10.5283C3.23174 10.7976 3.27859 11.0647 3.36848 11.3186L3.37852 11.3468C3.40737 11.4269 3.43769 11.5064 3.46945 11.5854C3.02174 11.0384 2.64451 10.4374 2.3466 9.79633C2.2075 9.4968 1.76723 9.55625 1.71316 9.88207C1.61684 10.4623 1.56641 11.0282 1.56641 11.5663C1.56637 16.2241 5.34227 20 10.0001 20C14.6579 20 18.4338 16.2241 18.4338 11.5663C18.4338 11.0282 18.3834 10.4623 18.287 9.88195C18.233 9.55691 17.793 9.49602 17.6543 9.79492C17.6487 9.80707 17.643 9.81918 17.6373 9.83129C17.4147 10.3049 16.7027 10.1169 16.7466 9.59539C16.765 9.37379 16.7727 9.15141 16.7695 8.92906H3.35113C3.25715 9.33481 3.20695 9.73234 3.20695 10.1021Z" fill="url(#paint1_linear_275_1677)"/>
<path d="M3.20695 10.1021C3.20695 10.2461 3.21496 10.3882 3.22984 10.5283C3.23174 10.7976 3.27859 11.0647 3.36848 11.3186L3.37852 11.3468C3.40737 11.4269 3.43769 11.5064 3.46945 11.5854C3.02174 11.0384 2.64451 10.4374 2.3466 9.79633C2.2075 9.4968 1.76723 9.55625 1.71316 9.88207C1.61684 10.4623 1.56641 11.0282 1.56641 11.5663C1.56637 16.2241 5.34227 20 10.0001 20C14.6579 20 18.4338 16.2241 18.4338 11.5663C18.4338 11.0282 18.3834 10.4623 18.287 9.88195C18.233 9.55691 17.793 9.49602 17.6543 9.79492C17.6487 9.80707 17.643 9.81918 17.6373 9.83129C17.4147 10.3049 16.7027 10.1169 16.7466 9.59539C16.765 9.37379 16.7727 9.15141 16.7695 8.92906H3.35113C3.25715 9.33481 3.20695 9.73234 3.20695 10.1021Z" fill="url(#paint2_linear_275_1677)"/>
<path d="M18.4337 11.5663C18.4337 11.0282 18.3833 10.4623 18.2869 9.88195C18.2329 9.55692 17.7929 9.49602 17.6542 9.79492C17.6486 9.80707 17.6429 9.81918 17.6372 9.83129C17.4146 10.3049 16.7026 10.1169 16.7465 9.59539C16.8266 8.64231 16.7087 7.65715 16.3653 6.69785C15.2507 3.58402 11.5081 0.038517 8.19404 4.04328e-05C7.84014 -0.00406113 7.63693 0.401095 7.8458 0.686837C8.12428 1.0677 8.35041 1.49703 8.51053 1.96797C9.03607 3.51387 8.71256 5.15973 7.78717 6.38254C7.59506 6.63637 7.29553 6.70129 7.0415 6.62367V19.4659C7.96213 19.8109 8.95893 20 9.99998 20C14.6578 20 18.4337 16.2241 18.4337 11.5663Z" fill="url(#paint3_linear_275_1677)"/>
<path d="M17.791 14.8L12.3084 9.31738L6.71252 17.3625L9.32299 19.9729C9.54635 19.9907 9.77206 20 9.99999 20C13.5121 20 16.5224 17.8529 17.791 14.8Z" fill="url(#paint4_linear_275_1677)"/>
<path d="M14.2727 13.0043C14.2695 13.0111 14.2664 13.0179 14.2632 13.0246C14.139 13.289 13.7415 13.1841 13.766 12.893C13.8107 12.3609 13.7449 11.8111 13.5532 11.2755C12.931 9.53738 10.8419 7.55824 8.99192 7.53676C8.79435 7.53445 8.68095 7.76063 8.79755 7.92012C8.95682 8.13828 9.08194 8.37943 9.1686 8.63527C9.46196 9.4982 9.28138 10.417 8.76481 11.0995C8.54946 11.3841 8.09224 11.2436 8.0847 10.8868L8.08454 10.879C8.08134 10.6956 8.11098 10.5131 8.17208 10.3401C8.19833 10.2659 8.12958 10.1929 8.05427 10.2156C7.00552 10.5318 6.20806 12.075 6.20806 13.1758C6.20806 13.2562 6.21255 13.3355 6.22083 13.4137C6.22189 13.564 6.24804 13.7131 6.29821 13.8548L6.3038 13.8706C6.31989 13.9155 6.337 13.9598 6.35454 14.0038C6.10463 13.6984 5.89405 13.3629 5.72774 13.0051C5.65009 12.8379 5.40435 12.8711 5.37415 13.053C5.32036 13.3769 5.29224 13.6928 5.29224 13.9931C5.29224 16.5931 7.39997 18.7009 10 18.7009C12.6 18.7009 14.7078 16.5931 14.7078 13.9931C14.7078 13.6927 14.6796 13.3768 14.6258 13.0529C14.5958 12.8715 14.3501 12.8375 14.2727 13.0043Z" fill="url(#paint5_linear_275_1677)"/>
<path d="M14.7079 13.9931C14.7079 13.6928 14.6797 13.3768 14.6259 13.0529C14.5958 12.8715 14.3502 12.8375 14.2727 13.0043C14.2696 13.0111 14.2664 13.0179 14.2632 13.0246C14.139 13.289 13.7416 13.1841 13.766 12.893C13.8107 12.3609 13.745 11.8111 13.5532 11.2755C12.931 9.53738 10.8419 7.55824 8.99195 7.53676C8.79437 7.53445 8.68098 7.76063 8.79758 7.92012C8.95685 8.13828 9.08197 8.37943 9.16863 8.63527C9.46199 9.4982 9.28141 10.417 8.76484 11.0995C8.65762 11.2412 8.49043 11.2775 8.34863 11.2341V18.4028C8.86254 18.5953 9.41894 18.7009 10.0001 18.7009C12.6001 18.7009 14.7079 16.5931 14.7079 13.9931Z" fill="url(#paint6_linear_275_1677)"/>
<path d="M6.20806 13.1758C6.20806 13.2562 6.21255 13.3355 6.22083 13.4137C6.22189 13.564 6.24804 13.7131 6.29821 13.8548L6.3038 13.8706C6.31989 13.9155 6.337 13.9598 6.35454 14.0038C6.10463 13.6984 5.89405 13.3629 5.72774 13.0051C5.65009 12.8379 5.40435 12.8711 5.37415 13.053C5.32036 13.3769 5.29224 13.6928 5.29224 13.9931C5.29224 16.5931 7.39997 18.7009 10 18.7009C12.6 18.7009 14.7078 16.5931 14.7078 13.9931C14.7078 13.6927 14.6796 13.3768 14.6258 13.0529C14.5957 12.8714 14.3501 12.8375 14.2727 13.0043C14.2695 13.0111 14.2664 13.0179 14.2632 13.0246C14.139 13.289 13.7415 13.184 13.7659 12.8929C13.7763 12.7698 13.7804 12.6457 13.7788 12.521H6.28856C6.2361 12.7475 6.20806 12.9694 6.20806 13.1758Z" fill="url(#paint7_linear_275_1677)"/>
<path d="M6.20806 13.1758C6.20806 13.2562 6.21255 13.3355 6.22083 13.4137C6.22189 13.564 6.24804 13.7131 6.29821 13.8548L6.3038 13.8706C6.31989 13.9155 6.337 13.9598 6.35454 14.0038C6.10463 13.6984 5.89405 13.3629 5.72774 13.0051C5.65009 12.8379 5.40435 12.8711 5.37415 13.053C5.32036 13.3769 5.29224 13.6928 5.29224 13.9931C5.29224 16.5931 7.39997 18.7009 10 18.7009C12.6 18.7009 14.7078 16.5931 14.7078 13.9931C14.7078 13.6927 14.6796 13.3768 14.6258 13.0529C14.5957 12.8714 14.3501 12.8375 14.2727 13.0043C14.2695 13.0111 14.2664 13.0179 14.2632 13.0246C14.139 13.289 13.7415 13.184 13.7659 12.8929C13.7763 12.7698 13.7804 12.6457 13.7788 12.521H6.28856C6.2361 12.7475 6.20806 12.9694 6.20806 13.1758Z" fill="url(#paint8_linear_275_1677)"/>
<path d="M2.46792 7.00484C3.08499 7.13141 3.57671 6.4968 3.33038 5.91703C3.14628 5.48375 3.17518 4.96945 3.45288 4.54633L3.45425 4.54422C3.52444 4.43766 3.46839 4.29422 3.3439 4.26617C2.76866 4.1366 2.14804 4.36613 1.80538 4.8882C1.36382 5.56102 1.55128 6.46441 2.22409 6.90602C2.29944 6.95539 2.38167 6.98715 2.46792 7.00484Z" fill="url(#paint9_linear_275_1677)"/>
<path d="M2.46792 7.00484C3.08499 7.13141 3.57671 6.4968 3.33038 5.91703C3.14628 5.48375 3.17518 4.96945 3.45288 4.54633L3.45425 4.54422C3.52444 4.43766 3.46839 4.29422 3.3439 4.26617C2.76866 4.1366 2.14804 4.36613 1.80538 4.8882C1.36382 5.56102 1.55128 6.46441 2.22409 6.90602C2.29944 6.95539 2.38167 6.98715 2.46792 7.00484Z" fill="url(#paint10_linear_275_1677)"/>
<path d="M2.46792 7.00484C3.08499 7.13141 3.57671 6.4968 3.33038 5.91703C3.14628 5.48375 3.17518 4.96945 3.45288 4.54633L3.45425 4.54422C3.52444 4.43766 3.46839 4.29422 3.3439 4.26617C2.76866 4.1366 2.14804 4.36613 1.80538 4.8882C1.36382 5.56102 1.55128 6.46441 2.22409 6.90602C2.29944 6.95539 2.38167 6.98715 2.46792 7.00484Z" fill="url(#paint11_linear_275_1677)"/>
</g>
<defs>
<linearGradient id="paint0_linear_275_1677" x1="5.63031" y1="6.89754" x2="13.8794" y2="15.1466" gradientUnits="userSpaceOnUse">
<stop stop-color="#FFA1AE"/>
<stop offset="1" stop-color="#FF4565"/>
</linearGradient>
<linearGradient id="paint1_linear_275_1677" x1="11.8793" y1="14.5664" x2="14.8032" y2="18.1029" gradientUnits="userSpaceOnUse">
<stop stop-color="#FE0364" stop-opacity="0"/>
<stop offset="0.234" stop-color="#F90362" stop-opacity="0.234"/>
<stop offset="0.517" stop-color="#EA035B" stop-opacity="0.517"/>
<stop offset="0.824" stop-color="#D20250" stop-opacity="0.824"/>
<stop offset="1" stop-color="#C00148"/>
</linearGradient>
<linearGradient id="paint2_linear_275_1677" x1="9.73512" y1="14.4243" x2="9.20606" y2="20.1607" gradientUnits="userSpaceOnUse">
<stop stop-color="#FE0364" stop-opacity="0"/>
<stop offset="0.234" stop-color="#F90362" stop-opacity="0.234"/>
<stop offset="0.517" stop-color="#EA035B" stop-opacity="0.517"/>
<stop offset="0.824" stop-color="#D20250" stop-opacity="0.824"/>
<stop offset="1" stop-color="#C00148"/>
</linearGradient>
<linearGradient id="paint3_linear_275_1677" x1="12.0698" y1="9.03867" x2="17.305" y2="6.64387" gradientUnits="userSpaceOnUse">
<stop stop-color="#FE0364" stop-opacity="0"/>
<stop offset="0.234" stop-color="#F90362" stop-opacity="0.234"/>
<stop offset="0.517" stop-color="#EA035B" stop-opacity="0.517"/>
<stop offset="0.824" stop-color="#D20250" stop-opacity="0.824"/>
<stop offset="1" stop-color="#C00148"/>
</linearGradient>
<linearGradient id="paint4_linear_275_1677" x1="16.3389" y1="18.7275" x2="9.93424" y2="13.9936" gradientUnits="userSpaceOnUse">
<stop stop-color="#FE0364" stop-opacity="0"/>
<stop offset="0.234" stop-color="#F90362" stop-opacity="0.234"/>
<stop offset="0.517" stop-color="#EA035B" stop-opacity="0.517"/>
<stop offset="0.824" stop-color="#D20250" stop-opacity="0.824"/>
<stop offset="1" stop-color="#C00148"/>
</linearGradient>
<linearGradient id="paint5_linear_275_1677" x1="8.06661" y1="11.6726" x2="11.8537" y2="16.0723" gradientUnits="userSpaceOnUse">
<stop stop-color="#FEF0AE"/>
<stop offset="1" stop-color="#FAC600"/>
</linearGradient>
<linearGradient id="paint6_linear_275_1677" x1="12.145" y1="12.3288" x2="13.4259" y2="11.8832" gradientUnits="userSpaceOnUse">
<stop stop-color="#FE9738" stop-opacity="0"/>
<stop offset="1" stop-color="#FE9738"/>
</linearGradient>
<linearGradient id="paint7_linear_275_1677" x1="8.69282" y1="16.3692" x2="7.74606" y2="17.91" gradientUnits="userSpaceOnUse">
<stop stop-color="#FE9738" stop-opacity="0"/>
<stop offset="1" stop-color="#FE9738"/>
</linearGradient>
<linearGradient id="paint8_linear_275_1677" x1="11.1276" y1="16.5247" x2="11.8702" y2="18.1027" gradientUnits="userSpaceOnUse">
<stop stop-color="#FE9738" stop-opacity="0"/>
<stop offset="1" stop-color="#FE9738"/>
</linearGradient>
<linearGradient id="paint9_linear_275_1677" x1="1.98436" y1="4.90871" x2="3.71085" y2="6.35676" gradientUnits="userSpaceOnUse">
<stop stop-color="#FFA1AE"/>
<stop offset="1" stop-color="#FF4565"/>
</linearGradient>
<linearGradient id="paint10_linear_275_1677" x1="2.44429" y1="5.99262" x2="2.0544" y2="7.00902" gradientUnits="userSpaceOnUse">
<stop stop-color="#FE0364" stop-opacity="0"/>
<stop offset="0.234" stop-color="#F90362" stop-opacity="0.234"/>
<stop offset="0.517" stop-color="#EA035B" stop-opacity="0.517"/>
<stop offset="0.824" stop-color="#D20250" stop-opacity="0.824"/>
<stop offset="1" stop-color="#C00148"/>
</linearGradient>
<linearGradient id="paint11_linear_275_1677" x1="2.43429" y1="5.49684" x2="3.70128" y2="5.87277" gradientUnits="userSpaceOnUse">
<stop stop-color="#FE0364" stop-opacity="0"/>
<stop offset="0.234" stop-color="#F90362" stop-opacity="0.234"/>
<stop offset="0.517" stop-color="#EA035B" stop-opacity="0.517"/>
<stop offset="0.824" stop-color="#D20250" stop-opacity="0.824"/>
<stop offset="1" stop-color="#C00148"/>
</linearGradient>
<clipPath id="clip0_275_1677">
<rect width="20" height="20" fill="white"/>
</clipPath>
</defs>
</svg>
