<svg width="48" height="48" viewBox="0 0 48 48" fill="none" xmlns="http://www.w3.org/2000/svg">
<path d="M0.5 24C0.5 11.0213 11.0213 0.5 24 0.5C36.9787 0.5 47.5 11.0213 47.5 24C47.5 36.9787 36.9787 47.5 24 47.5C11.0213 47.5 0.5 36.9787 0.5 24Z" fill="#FDF3F5"/>
<path d="M33.5031 31.7912L32.4314 18.2861C32.3649 17.4159 31.6287 16.7346 30.7562 16.7346H28.6392V19.8714C28.6392 20.2598 28.3247 20.5742 27.9363 20.5742C27.5483 20.5742 27.2334 20.2598 27.2334 19.8714V16.7346H20.7669V19.8714C20.7669 20.2598 20.452 20.5742 20.064 20.5742C19.6756 20.5742 19.3612 20.2598 19.3612 19.8714V16.7346H17.2441C16.3716 16.7346 15.6354 17.4159 15.5689 18.2842L14.4968 31.7931C14.4139 32.875 14.7892 33.9519 15.5263 34.7475C16.2634 35.5431 17.3083 36 18.3931 36H29.6073C30.6921 36 31.737 35.5431 32.4741 34.7475C33.2112 33.9518 33.5865 32.875 33.5031 31.7912ZM27.1669 24.9137L23.5316 28.549C23.3943 28.6863 23.2143 28.7552 23.0344 28.7552C22.8545 28.7552 22.6746 28.6863 22.5373 28.549L20.8335 26.8453C20.5589 26.5707 20.5589 26.126 20.8335 25.8514C21.1081 25.5768 21.5533 25.5768 21.8274 25.8514L23.0345 27.058L26.173 23.9194C26.4472 23.6453 26.8923 23.6453 27.1669 23.9194C27.4415 24.194 27.4415 24.6392 27.1669 24.9137Z" fill="#FC6240"/>
<path d="M24.0002 12C21.4422 12 19.3612 14.0814 19.3612 16.6395V16.7346H20.767V16.6395C20.767 14.8565 22.2173 13.4057 24.0002 13.4057C25.7832 13.4057 27.2335 14.8565 27.2335 16.6395V16.7346H28.6392V16.6395C28.6392 14.0814 26.5582 12 24.0002 12Z" fill="#FC6240"/>
<path d="M0.5 24C0.5 11.0213 11.0213 0.5 24 0.5C36.9787 0.5 47.5 11.0213 47.5 24C47.5 36.9787 36.9787 47.5 24 47.5C11.0213 47.5 0.5 36.9787 0.5 24Z" stroke="#F7D1D9"/>
</svg>
