<svg width="48" height="48" viewBox="0 0 48 48" fill="none" xmlns="http://www.w3.org/2000/svg">
<path d="M0.5 24C0.5 11.0213 11.0213 0.5 24 0.5C36.9787 0.5 47.5 11.0213 47.5 24C47.5 36.9787 36.9787 47.5 24 47.5C11.0213 47.5 0.5 36.9787 0.5 24Z" fill="#FDF3F5"/>
<path d="M21.8906 24.7031H26.1094V26.1094H21.8906V24.7031Z" fill="#FC6240"/>
<path d="M31.4709 26.1094H27.5156V26.8126C27.5156 27.2011 27.2011 27.5157 26.8125 27.5157H21.1875C20.799 27.5157 20.4844 27.2011 20.4844 26.8126V26.1094H16.5291C15.62 26.1094 14.816 25.5299 14.5281 24.6675L12 17.0818V32.4376C12 33.6007 12.9463 34.5469 14.1094 34.5469H33.8906C35.0537 34.5469 36 33.6007 36 32.4376V17.0824L33.4717 24.6675C33.184 25.5299 32.38 26.1094 31.4709 26.1094H31.4709Z" fill="#FC6240"/>
<path d="M26.8125 13.4531H21.1875C20.0244 13.4531 19.0781 14.3994 19.0781 15.5625V16.2656H13.2098L15.8617 24.2225C15.9578 24.5101 16.2263 24.7031 16.5291 24.7031H20.4844V24C20.4844 23.6114 20.799 23.2969 21.1875 23.2969H26.8125C27.2011 23.2969 27.5156 23.6114 27.5156 24V24.7031H31.4709C31.7738 24.7031 32.0422 24.5101 32.1383 24.2225L34.7904 16.2656H28.9219V15.5625C28.9219 14.3994 27.9756 13.4531 26.8125 13.4531H26.8125ZM20.4844 16.2656V15.5625C20.4844 15.1745 20.7995 14.8594 21.1875 14.8594H26.8125C27.2005 14.8594 27.5156 15.1745 27.5156 15.5625V16.2656H20.4844Z" fill="#FC6240"/>
<path d="M0.5 24C0.5 11.0213 11.0213 0.5 24 0.5C36.9787 0.5 47.5 11.0213 47.5 24C47.5 36.9787 36.9787 47.5 24 47.5C11.0213 47.5 0.5 36.9787 0.5 24Z" stroke="#F7D1D9"/>
</svg>
