<svg width="24" height="24" viewBox="0 0 24 24" fill="none" xmlns="http://www.w3.org/2000/svg">
<g clip-path="url(#clip0_78_2770)">
<path d="M3.24197 22.6305L3.23242 22.6264L3.22279 22.6225C2.85821 22.4756 2.54645 22.222 2.32827 21.8951C2.1101 21.5681 1.99566 21.1829 1.99993 20.7899H1.99999V20.779V5.00063C2.00141 3.94004 2.42336 2.92329 3.17332 2.17333C3.92328 1.42336 4.94003 1.00142 6.00062 1H17.9994C19.0599 1.00142 20.0767 1.42336 20.8267 2.17333C21.5768 2.92342 21.9987 3.9404 22 5.0012V20.779H21.9999L22.0001 20.7904C22.0045 21.1831 21.8905 21.5681 21.6728 21.8951C21.4551 22.222 21.1439 22.4757 20.7798 22.623L20.7798 22.623L20.7685 22.6277C20.5201 22.7318 20.2537 22.7859 19.9844 22.787C19.7265 22.7862 19.4714 22.7345 19.2336 22.6347C18.9951 22.5346 18.7788 22.3883 18.5972 22.204L18.5972 22.204L18.5902 22.197L12.7052 16.344L12 15.6426L11.2948 16.344L5.40981 22.197L5.40977 22.1969L5.40236 22.2045C5.12679 22.4844 4.77326 22.6748 4.38789 22.7508C4.00251 22.8267 3.60317 22.7848 3.24197 22.6305Z" stroke="#C0C0C0" stroke-width="2"/>
</g>
<defs>
<clipPath id="clip0_78_2770">
<rect width="24" height="24" fill="white"/>
</clipPath>
</defs>
</svg>
