<svg width="32" height="33" viewBox="0 0 32 33" fill="none" xmlns="http://www.w3.org/2000/svg">
<g clip-path="url(#clip0_238_858)">
<path d="M13.5 22.8333C14.0523 22.8333 14.5 22.3856 14.5 21.8333C14.5 21.2811 14.0523 20.8333 13.5 20.8333C12.9477 20.8333 12.5 21.2811 12.5 21.8333C12.5 22.3856 12.9477 22.8333 13.5 22.8333Z" fill="#D61842"/>
<path d="M18.5 22.8333C19.0523 22.8333 19.5 22.3856 19.5 21.8333C19.5 21.2811 19.0523 20.8333 18.5 20.8333C17.9477 20.8333 17.5 21.2811 17.5 21.8333C17.5 22.3856 17.9477 22.8333 18.5 22.8333Z" fill="#D61842"/>
<path d="M21.5 12.3333H20.5V11.3333C20.5 11.2007 20.4473 11.0736 20.3536 10.9798C20.2598 10.886 20.1326 10.8333 20 10.8333C19.8674 10.8333 19.7402 10.886 19.6464 10.9798C19.5527 11.0736 19.5 11.2007 19.5 11.3333V12.3333H18.5C18.3674 12.3333 18.2402 12.386 18.1464 12.4798C18.0527 12.5736 18 12.7007 18 12.8333C18 12.966 18.0527 13.0931 18.1464 13.1869C18.2402 13.2807 18.3674 13.3333 18.5 13.3333H19.5V14.3333C19.5 14.466 19.5527 14.5931 19.6464 14.6869C19.7402 14.7807 19.8674 14.8333 20 14.8333C20.1326 14.8333 20.2598 14.7807 20.3536 14.6869C20.4473 14.5931 20.5 14.466 20.5 14.3333V13.3333H21.5C21.6326 13.3333 21.7598 13.2807 21.8536 13.1869C21.9473 13.0931 22 12.966 22 12.8333C22 12.7007 21.9473 12.5736 21.8536 12.4798C21.7598 12.386 21.6326 12.3333 21.5 12.3333Z" fill="#D61842"/>
<path d="M20.8855 15.6963C20.8209 15.6842 20.7544 15.6851 20.6901 15.6989C20.6258 15.7126 20.5649 15.739 20.5108 15.7765C20.4568 15.814 20.4107 15.8618 20.3753 15.9172C20.3399 15.9727 20.3158 16.0346 20.3045 16.0993C20.2421 16.4454 20.0602 16.7586 19.7904 16.9841C19.5206 17.2097 19.1802 17.3333 18.8285 17.3333H12.709L12.239 13.3333H16.5C16.6326 13.3333 16.7598 13.2807 16.8536 13.1869C16.9473 13.0931 17 12.966 17 12.8333C17 12.7007 16.9473 12.5736 16.8536 12.4798C16.7598 12.386 16.6326 12.3333 16.5 12.3333H12.121L12.1 12.1573C12.0569 11.7926 11.8815 11.4564 11.6071 11.2124C11.3327 10.9684 10.9782 10.8335 10.611 10.8333H10.5C10.3674 10.8333 10.2402 10.886 10.1464 10.9798C10.0527 11.0736 10 11.2007 10 11.3333C10 11.466 10.0527 11.5931 10.1464 11.6869C10.2402 11.7807 10.3674 11.8333 10.5 11.8333H10.611C10.7335 11.8334 10.8517 11.8783 10.9432 11.9597C11.0347 12.0411 11.0932 12.1532 11.1075 12.2748L11.7955 18.1248C11.8669 18.7332 12.1592 19.2942 12.617 19.7013C13.0747 20.1085 13.6659 20.3334 14.2785 20.3333H19.5C19.6326 20.3333 19.7598 20.2807 19.8536 20.1869C19.9473 20.0931 20 19.966 20 19.8333C20 19.7007 19.9473 19.5736 19.8536 19.4798C19.7598 19.386 19.6326 19.3333 19.5 19.3333H14.2785C13.9683 19.3334 13.6656 19.2373 13.4123 19.0582C13.159 18.8791 12.9674 18.6258 12.864 18.3333H18.8285C19.4146 18.3334 19.982 18.1276 20.4318 17.7518C20.8815 17.376 21.1849 16.8541 21.289 16.2773C21.3007 16.2127 21.2995 16.1464 21.2855 16.0822C21.2716 16.018 21.2451 15.9572 21.2076 15.9032C21.1702 15.8493 21.1224 15.8032 21.0672 15.7677C21.0119 15.7322 20.9502 15.708 20.8855 15.6963Z" fill="#D61842"/>
</g>
<rect x="0.5" y="1.33334" width="31" height="31" rx="15.5" stroke="#D61842"/>
<defs>
<clipPath id="clip0_238_858">
<rect width="12" height="12" fill="white" transform="translate(10 10.8333)"/>
</clipPath>
</defs>
</svg>
