<svg width="20" height="20" viewBox="0 0 20 20" fill="none" xmlns="http://www.w3.org/2000/svg">
<path d="M12.8235 2H4.35293C3.05344 2 2 3.05344 2 4.35293V12.8235C2 14.123 3.05344 15.1764 4.35293 15.1764H12.8235C14.123 15.1764 15.1764 14.123 15.1764 12.8235V4.35293C15.1764 3.05344 14.123 2 12.8235 2Z" fill="#FC6240"/>
<path d="M12.8234 16.1171H4.87048C4.97897 16.6486 5.26774 17.1262 5.68794 17.4693C6.10813 17.8123 6.63393 17.9996 7.17635 17.9995H15.6469C15.9559 17.9995 16.2619 17.9386 16.5473 17.8204C16.8328 17.7021 17.0922 17.5288 17.3107 17.3103C17.5292 17.0918 17.7025 16.8324 17.8207 16.547C17.939 16.2615 17.9998 15.9555 17.9998 15.6465V7.17599C17.9999 6.63357 17.8126 6.10776 17.4696 5.68757C17.1266 5.26738 16.6489 4.9786 16.1175 4.87012V12.823C16.1175 14.6395 14.6398 16.1171 12.8234 16.1171Z" fill="#FC6240"/>
</svg>
