<svg width="19" height="18" viewBox="0 0 19 18" fill="none" xmlns="http://www.w3.org/2000/svg">
<path fill-rule="evenodd" clip-rule="evenodd" d="M1.375 7.47919C1.375 7.31343 1.44085 7.15446 1.55806 7.03724C1.67527 6.92003 1.83424 6.85419 2 6.85419C2.16576 6.85419 2.32473 6.92003 2.44194 7.03724C2.55915 7.15446 2.625 7.31343 2.625 7.47919V14.5625C2.625 15.0598 2.82254 15.5367 3.17417 15.8883C3.52581 16.24 4.00272 16.4375 4.5 16.4375H14.5C14.9973 16.4375 15.4742 16.24 15.8258 15.8883C16.1775 15.5367 16.375 15.0598 16.375 14.5625V7.47919C16.375 7.31343 16.4408 7.15446 16.5581 7.03724C16.6753 6.92003 16.8342 6.85419 17 6.85419C17.1658 6.85419 17.3247 6.92003 17.4419 7.03724C17.5592 7.15446 17.625 7.31343 17.625 7.47919V14.5625C17.625 15.3913 17.2958 16.1862 16.7097 16.7722C16.1237 17.3583 15.3288 17.6875 14.5 17.6875H4.5C3.6712 17.6875 2.87634 17.3583 2.29029 16.7722C1.70424 16.1862 1.375 15.3913 1.375 14.5625V7.47919Z" fill="#1F1F1F"/>
<path fill-rule="evenodd" clip-rule="evenodd" d="M9.50003 10.1875C10.3287 10.1879 11.1233 10.5173 11.7093 11.1033C12.2952 11.6892 12.6246 12.4838 12.625 13.3125V17.0625C12.625 17.2283 12.5592 17.3872 12.442 17.5044C12.3248 17.6217 12.1658 17.6875 12 17.6875C11.8343 17.6875 11.6753 17.6217 11.5581 17.5044C11.4409 17.3872 11.375 17.2283 11.375 17.0625V13.3125C11.375 12.8152 11.1775 12.3383 10.8259 11.9867C10.4742 11.635 9.99731 11.4375 9.50003 11.4375C9.00275 11.4375 8.52584 11.635 8.17421 11.9867C7.82258 12.3383 7.62503 12.8152 7.62503 13.3125V17.0625C7.62503 17.2283 7.55918 17.3872 7.44197 17.5044C7.32476 17.6217 7.16579 17.6875 7.00003 17.6875C6.83427 17.6875 6.6753 17.6217 6.55809 17.5044C6.44088 17.3872 6.37503 17.2283 6.37503 17.0625V13.3125C6.37547 12.4838 6.70485 11.6892 7.29081 11.1033C7.87677 10.5173 8.67136 10.1879 9.50003 10.1875ZM6.95336 0.9375V5.625C6.95314 6.47045 6.61713 7.28121 6.01923 7.87895C5.42132 8.4767 4.61049 8.8125 3.76503 8.8125C3.27536 8.8122 2.79219 8.7004 2.35216 8.48558C1.91213 8.27076 1.5268 7.95856 1.22538 7.57265C0.923965 7.18675 0.714383 6.73727 0.61253 6.25832C0.510677 5.77936 0.519227 5.28349 0.637532 4.80833L1.30003 2.15917C1.43182 1.63169 1.73618 1.16341 2.16471 0.828801C2.59324 0.49419 3.12134 0.312457 3.66503 0.3125H6.32836C6.49413 0.3125 6.6531 0.378348 6.77031 0.495558C6.88752 0.612768 6.95336 0.77174 6.95336 0.9375ZM5.70336 1.5625H3.66503C3.12003 1.5625 2.64503 1.93333 2.51336 2.46167L1.85087 5.11167C1.7785 5.40249 1.77331 5.70597 1.83566 5.9991C1.89802 6.29223 2.02629 6.56731 2.21076 6.8035C2.39523 7.03969 2.63105 7.23078 2.90035 7.36229C3.16964 7.49379 3.46534 7.56226 3.76503 7.5625C4.27897 7.5625 4.77186 7.3584 5.13535 6.99507C5.49883 6.63174 5.70314 6.13893 5.70336 5.625V1.5625ZM12.6717 0.3125H15.335C16.4534 0.3125 17.4284 1.07333 17.7 2.15917L18.3625 4.80833C18.4808 5.28349 18.4894 5.77936 18.3875 6.25832C18.2857 6.73727 18.0761 7.18675 17.7747 7.57265C17.4733 7.95856 17.0879 8.27076 16.6479 8.48558C16.2079 8.7004 15.7247 8.8122 15.235 8.8125C14.3896 8.8125 13.5787 8.4767 12.9808 7.87895C12.3829 7.28121 12.0469 6.47045 12.0467 5.625V0.9375C12.0467 0.77174 12.1125 0.612768 12.2298 0.495558C12.347 0.378348 12.5059 0.3125 12.6717 0.3125ZM13.2967 1.5625V5.625C13.2969 6.13893 13.5012 6.63174 13.8647 6.99507C14.2282 7.3584 14.7211 7.5625 15.235 7.5625C15.5347 7.56226 15.8304 7.49379 16.0997 7.36229C16.369 7.23078 16.6048 7.03969 16.7893 6.8035C16.9738 6.56731 17.102 6.29223 17.1644 5.9991C17.2268 5.70597 17.2216 5.40249 17.1492 5.11167L16.4867 2.46167C16.4226 2.20479 16.2743 1.97675 16.0657 1.81382C15.857 1.65089 15.5998 1.56242 15.335 1.5625H13.2967Z" fill="#1F1F1F"/>
<path fill-rule="evenodd" clip-rule="evenodd" d="M6.32166 0.3125H12.6717C12.7538 0.3125 12.8351 0.328694 12.911 0.360155C12.9869 0.391616 13.0558 0.437728 13.1139 0.495853C13.1719 0.553978 13.218 0.622976 13.2493 0.6989C13.2807 0.774825 13.2968 0.856187 13.2967 0.938333L13.2925 5.47167C13.2918 6.35794 12.9393 7.20769 12.3124 7.83414C11.6854 8.4606 10.8354 8.8125 9.94915 8.8125H9.04082C8.15404 8.8125 7.30356 8.46028 6.67643 7.83331C6.04931 7.20634 5.69688 6.35595 5.69666 5.46917V0.9375C5.69666 0.77174 5.7625 0.612768 5.87971 0.495558C5.99692 0.378348 6.15589 0.3125 6.32166 0.3125ZM6.94666 1.5625V5.46917C6.94688 6.02443 7.16761 6.55688 7.56032 6.94943C7.95303 7.34198 8.48556 7.5625 9.04082 7.5625H9.94915C10.2239 7.56261 10.4961 7.50859 10.75 7.40354C11.0039 7.29848 11.2346 7.14444 11.429 6.95021C11.6234 6.75598 11.7776 6.52537 11.8829 6.27154C11.9881 6.0177 12.0424 5.74562 12.0425 5.47083L12.0467 1.5625H6.94666Z" fill="#1F1F1F"/>
</svg>
