<svg width="36" height="36" viewBox="0 0 36 36" fill="none" xmlns="http://www.w3.org/2000/svg">
<g clip-path="url(#clip0_2277_3038)">
<path fill-rule="evenodd" clip-rule="evenodd" d="M19.475 8.38785C19.0307 8.11689 18.5204 7.97354 18 7.97354C17.4796 7.97354 16.9693 8.11689 16.5251 8.38785L14.8238 9.42773C14.6951 9.50686 14.5533 9.56257 14.4052 9.5923L11.2742 10.2177C10.6329 10.3459 10.0558 10.6923 9.64114 11.1981C9.22651 11.7039 8.99995 12.3377 9.00003 12.9917V16.7861C9.00003 22.0802 12.6031 26.6943 17.7388 27.978C17.9095 28.0212 18.0895 28.0212 18.2602 27.978C20.7563 27.3541 22.9731 25.9137 24.5565 23.8858C26.1399 21.8579 27 19.3589 27 16.7861V12.9917C27.0001 12.3377 26.7735 11.7039 26.3589 11.1981C25.9443 10.6923 25.3672 10.3459 24.7258 10.2177L21.5949 9.5923C21.4467 9.56257 21.305 9.50686 21.1762 9.42773L19.475 8.38785ZM18 26.4516C20.1364 25.8912 22.027 24.6387 23.3762 22.89C24.7253 21.1413 25.4571 18.9948 25.4572 16.7861V12.9917C25.4572 12.6944 25.3542 12.4063 25.1658 12.1764C24.9773 11.9465 24.715 11.789 24.4234 11.7307L21.2925 11.1043C20.9667 11.0397 20.6551 10.9178 20.3719 10.7443L18.6706 9.70442C18.4686 9.58131 18.2366 9.51619 18 9.51619C17.7634 9.51619 17.5314 9.58131 17.3294 9.70442L15.6281 10.7443C15.345 10.9178 15.0333 11.0397 14.7076 11.1043L11.5766 11.7307C11.2851 11.789 11.0227 11.9465 10.8343 12.1764C10.6458 12.4063 10.5428 12.6944 10.5429 12.9917V16.7861C10.5429 18.9948 11.2747 21.1413 12.6239 22.89C13.9731 24.6387 15.8636 25.8912 18 26.4516Z" fill="#D61842"/>
<path fill-rule="evenodd" clip-rule="evenodd" d="M16.9714 18.9677L20.5406 15.3996C20.6122 15.328 20.6971 15.2712 20.7907 15.2325C20.8842 15.1937 20.9845 15.1738 21.0857 15.1738C21.187 15.1738 21.2872 15.1937 21.3807 15.2325C21.4743 15.2712 21.5593 15.328 21.6308 15.3996C21.7024 15.4712 21.7592 15.5562 21.798 15.6497C21.8367 15.7433 21.8567 15.8435 21.8567 15.9447C21.8567 16.046 21.8367 16.1462 21.798 16.2398C21.7592 16.3333 21.7024 16.4183 21.6308 16.4899L17.5166 20.6042C17.445 20.6758 17.36 20.7327 17.2665 20.7715C17.173 20.8102 17.0727 20.8302 16.9714 20.8302C16.8702 20.8302 16.7699 20.8102 16.6764 20.7715C16.5828 20.7327 16.4978 20.6758 16.4263 20.6042L14.8834 19.0613C14.8118 18.9897 14.7551 18.9047 14.7163 18.8112C14.6776 18.7177 14.6576 18.6174 14.6576 18.5162C14.6576 18.4149 14.6776 18.3147 14.7163 18.2211C14.7551 18.1276 14.8118 18.0426 14.8834 17.971C14.955 17.8994 15.04 17.8427 15.1335 17.8039C15.2271 17.7652 15.3273 17.7452 15.4286 17.7452C15.5298 17.7452 15.6301 17.7652 15.7236 17.8039C15.8171 17.8427 15.9021 17.8994 15.9737 17.971L16.9714 18.9677Z" fill="#D61842"/>
</g>
<defs>
<clipPath id="clip0_2277_3038">
<rect width="20" height="20" fill="white" transform="translate(8 8)"/>
</clipPath>
</defs>
</svg>
