<svg width="21" height="20" viewBox="0 0 21 20" fill="none" xmlns="http://www.w3.org/2000/svg">
<path d="M10.5 20C4.98583 20 0.5 15.5142 0.5 10C0.5 4.48583 4.98583 0 10.5 0C16.0142 0 20.5 4.48583 20.5 10C20.5 15.5142 16.0142 20 10.5 20ZM10.5 1.66667C5.905 1.66667 2.16667 5.405 2.16667 10C2.16667 14.595 5.905 18.3333 10.5 18.3333C15.095 18.3333 18.8333 14.595 18.8333 10C18.8333 5.405 15.095 1.66667 10.5 1.66667ZM14.6667 10C14.6667 9.77899 14.5789 9.56702 14.4226 9.41074C14.2663 9.25446 14.0543 9.16667 13.8333 9.16667H11.3333V5C11.3333 4.77899 11.2455 4.56702 11.0893 4.41074C10.933 4.25446 10.721 4.16667 10.5 4.16667C10.279 4.16667 10.067 4.25446 9.91074 4.41074C9.75446 4.56702 9.66667 4.77899 9.66667 5V10C9.66667 10.221 9.75446 10.433 9.91074 10.5893C10.067 10.7455 10.279 10.8333 10.5 10.8333H13.8333C14.0543 10.8333 14.2663 10.7455 14.4226 10.5893C14.5789 10.433 14.6667 10.221 14.6667 10Z" fill="#1F1F1F"/>
</svg>
